<svg width="74" height="24" viewBox="0 0 74 24" fill="none" xmlns="http://www.w3.org/2000/svg">
<g clip-path="url(#clip0_2_23)">
<path d="M70.5964 8.8396H73.9917C73.5622 5.52923 71.1488 3.78919 67.7943 3.78919C64.3991 3.78919 62.1288 5.59292 62.1288 8.69106C62.1288 12.2136 65.0536 12.9987 66.608 13.3171C68.6125 13.7202 70.576 13.7627 70.576 15.5451C70.576 16.7547 69.5942 17.3489 68.2034 17.3489C66.4853 17.3489 65.34 16.4576 65.0536 14.845H61.6993C61.9038 18.325 64.3378 20.1924 67.9171 20.1924C71.2305 20.1924 73.9507 18.6221 73.9507 15.2269C73.9507 11.577 70.8215 10.9192 68.6329 10.5796C67.1398 10.3463 65.5036 10.134 65.5036 8.50005C65.5036 7.35418 66.3421 6.65395 67.7534 6.65395C69.3897 6.65395 70.3714 7.6089 70.5964 8.8396Z" fill="white"/>
<path d="M59.8381 4.31974H56.6268V19.7043H59.8381V4.31974Z" fill="white"/>
<path d="M46.932 14.3356H51.125C50.4704 15.9909 48.9977 16.7759 47.3001 16.7759C44.314 16.7759 42.9232 14.3781 42.9232 12.0014C42.9232 9.60349 44.2322 7.16322 47.2797 7.16322C49.141 7.16322 50.5317 8.05447 51.0636 9.64596L54.5201 9.64598C53.9271 6.05984 50.8999 4.00148 47.3207 4.00148C42.9028 4.00148 39.5893 7.12075 39.5893 12.0439C39.5893 17.0306 43.189 19.9802 47.3001 19.9802C51.3499 19.9802 54.5201 17.2428 54.5201 12.9564V11.7043H46.932V14.3356Z" fill="white"/>
<path d="M32.2466 4.00146C28.565 4.00146 25.8447 6.39928 25.8651 10.3887H29.1786C29.1377 8.64863 30.2012 7.05714 32.0829 7.05714C33.7192 7.05714 34.6805 8.24548 34.6805 9.60349C34.6805 10.9616 33.7192 11.7255 31.9397 12.5532C29.5058 13.6778 27.7673 14.3993 25.9878 15.0359V19.7043H38.3826V16.5637H29.8735C29.8735 16.5637 29.9018 16.5545 29.9157 16.5502C31.363 16.0952 32.4503 15.6009 33.7397 15.0147C36.5008 13.7415 38.0757 12.1499 38.0757 9.4338C38.0758 6.10218 35.7032 4.00146 32.2466 4.00146Z" fill="white"/>
<path d="M17.1521 14.2932C12.9796 14.3145 12.3046 16.9245 12.0797 19.1314L11.9774 20.1075H11.1388L11.0365 19.1314C10.8116 16.9245 10.1162 14.3144 6.08682 14.2932C5.41188 12.8502 5.12553 11.6831 5.12553 10.3674C5.12553 7.07838 7.72312 4.00137 11.5683 4.00137C15.4135 4.00137 17.9702 7.05704 17.9702 10.3888C17.9702 11.6831 17.8475 12.8502 17.1521 14.2932ZM11.5274 0.0119858C5.18695 0.0119858 -0.00823975 5.40195 -0.00823975 12.0013C-0.00823975 18.6221 5.18695 24.0119 11.5274 24.0119C17.9292 24.0119 23.104 18.6221 23.104 12.0013C23.104 5.40196 17.9292 0.0119858 11.5274 0.0119858Z" fill="white"/>
</g>
<defs>
<clipPath id="clip0_2_23">
<rect width="74" height="24" fill="white"/>
</clipPath>
</defs>
</svg>
