<svg width="97" height="24" viewBox="0 0 97 24" fill="none" xmlns="http://www.w3.org/2000/svg">
<g clip-path="url(#clip0_2_32)">
<path fill-rule="evenodd" clip-rule="evenodd" d="M97 0.592933C97 0.592933 95.1965 0.377203 93.0655 0.377203C90.989 0.377203 89.24 0.592933 89.24 0.592933V7.33452H97V0.592933Z" fill="white"/>
<path fill-rule="evenodd" clip-rule="evenodd" d="M97 16.5031H89.24V23.3525C89.24 23.3525 91.4262 23.5682 93.1745 23.5682C94.9234 23.5682 97 23.2986 97 23.2986V16.5031Z" fill="white"/>
<path fill-rule="evenodd" clip-rule="evenodd" d="M84.5945 0.593246H75.031L68.3641 8.84493H65.2492V0.593246H56.9974V23.4067H65.2492V14.8314H68.2548L74.9765 23.4067H85.1959L75.1952 11.2719L84.5945 0.593246Z" fill="white"/>
<path fill-rule="evenodd" clip-rule="evenodd" d="M26.0669 0.593246H0V23.4067H8.3611V7.06516H17.7058V23.4067H26.0669V0.593246Z" fill="white"/>
<path fill-rule="evenodd" clip-rule="evenodd" d="M30.1108 6.6337L28.9086 0.593261C28.9086 0.593261 36.7231 0 41.5868 0C46.4505 0 52.2978 0.593261 52.2978 0.593261C52.2978 0.593261 54.1011 5.23146 54.1011 11.7573C54.1011 18.2831 52.2431 23.4068 52.2431 23.4068C52.2431 23.4068 46.6691 24 41.5322 24C36.3953 24 28.9086 23.4068 28.9086 23.4068L30.1108 17.3663C30.1108 17.3663 35.357 17.7438 39.8381 17.7438C44.3192 17.7438 46.0679 17.3663 46.0679 17.3663C46.0679 17.3663 46.2865 16.2337 46.3958 14.9393H35.6849V9.11464H46.4505C46.3411 7.60452 46.1226 6.68764 46.1226 6.68764C46.1226 6.68764 42.4611 6.31011 39.3463 6.31011C36.1767 6.25618 30.1108 6.6337 30.1108 6.6337Z" fill="white"/>
</g>
<defs>
<clipPath id="clip0_2_32">
<rect width="97" height="24" fill="white"/>
</clipPath>
</defs>
</svg>
