<svg width="93" height="24" viewBox="0 0 93 24" fill="none" xmlns="http://www.w3.org/2000/svg">
<g clip-path="url(#clip0_2_90)">
<path d="M10.601 24C6.61587 20.1599 4.62323 18.2399 4.62314 18.24L0.725546 22.08C0.324604 22.6067 0.428202 23.3574 0.956939 23.7568C1.16582 23.9146 1.42077 24 1.68291 24C1.68945 24 1.69599 24 1.70253 24C4.6687 24 7.63487 24 10.601 24Z" fill="white"/>
<path fill-rule="evenodd" clip-rule="evenodd" d="M14.456 8.64L5.78238 0L0.939776 5.02486C0.336745 5.65058 0 6.48437 0 7.35176L0 22.08C0 23.1404 0.862954 24 1.92746 24C1.26796 24 0.733338 23.4674 0.733338 22.8105C0.733338 22.4942 0.859771 22.191 1.08469 21.9678" fill="white"/>
<path fill-rule="evenodd" clip-rule="evenodd" d="M76.2661 14.9636H74.1804L71.6888 17.4734V14.9636H69.925V21.8796H71.6888V19.0212L74.2225 21.8796H76.3501L73.0746 18.1706L76.2661 14.9636Z" fill="white"/>
<mask id="mask0_2_90" style="mask-type:luminance" maskUnits="userSpaceOnUse" x="15" y="12" width="10" height="10">
<path d="M15.9016 12.1191H24.0203V21.8797H15.9016V12.1191Z" fill="white"/>
</mask>
<g mask="url(#mask0_2_90)">
<path fill-rule="evenodd" clip-rule="evenodd" d="M20.2969 16.832H17.7492V13.7644H20.2969C21.5846 13.7644 22.1726 14.3778 22.1726 15.2981C22.1726 16.2184 21.5846 16.832 20.2969 16.832ZM20.3529 12.1189H15.9016V21.8796H17.7492V18.4773H20.3529C22.5646 18.4773 24.0203 17.3479 24.0203 15.2981C24.0203 13.2483 22.5646 12.1189 20.3529 12.1189Z" fill="white"/>
</g>
<path fill-rule="evenodd" clip-rule="evenodd" d="M28.191 20.4295C27.1553 20.4295 26.1893 19.6904 26.1893 18.4215C26.1893 17.1527 27.1553 16.4137 28.191 16.4137C29.2269 16.4137 30.1927 17.1527 30.1927 18.4215C30.1927 19.6904 29.2269 20.4295 28.191 20.4295ZM28.191 14.7683C26.2873 14.7683 24.3975 15.9954 24.3975 18.4215C24.3975 20.8479 26.2873 22.0748 28.191 22.0748C30.0948 22.0748 31.9845 20.8479 31.9845 18.4215C31.9845 15.9954 30.0948 14.7683 28.191 14.7683Z" fill="white"/>
<path fill-rule="evenodd" clip-rule="evenodd" d="M36.4874 20.4295C35.4236 20.4295 34.6397 19.6626 34.6397 18.4215C34.6397 17.1945 35.4516 16.4137 36.4874 16.4137C37.1174 16.4137 37.6633 16.7065 38.0972 17.3619L39.6089 16.4973C39.1051 15.4236 38.0131 14.7683 36.5014 14.7683C34.5277 14.7683 32.8479 16.2185 32.8479 18.4215C32.8479 20.6246 34.4438 22.0748 36.5014 22.0748C37.9852 22.0748 38.979 21.4056 39.6789 20.2204L38.2232 19.4256C37.8032 20.0112 37.3552 20.4295 36.4874 20.4295Z" fill="white"/>
<path fill-rule="evenodd" clip-rule="evenodd" d="M55.2668 18.8819C55.1829 19.9415 54.9726 20.1786 54.6086 20.1786C54.36 20.1786 54.2431 20.1511 54.0729 20.1067L54.0817 21.8966C54.0817 21.8966 54.3009 21.9633 54.7069 21.9633C56.2046 21.9633 56.7645 21.0012 56.9046 18.9515L57.0725 16.5393H59.0601V21.8657H60.8239V14.9636H55.5607L55.2668 18.8819Z" fill="white"/>
<path fill-rule="evenodd" clip-rule="evenodd" d="M48.3323 17.5014C48.5843 16.7205 49.2841 16.107 50.208 16.107C51.1879 16.107 51.8458 16.6368 52.0138 17.5014H48.3323ZM50.2641 14.7684C48.2484 14.7684 46.6106 16.2325 46.6106 18.4216C46.6106 20.6108 48.2484 22.0748 50.18 22.0748C51.7059 22.0748 52.6717 21.5032 53.3716 20.318L51.9717 19.6208C51.5378 20.1646 51.1459 20.5689 50.208 20.5689C49.1723 20.5689 48.4163 19.8997 48.3043 18.84H53.6515V18.2264C53.6515 16.2046 52.2518 14.7684 50.2641 14.7684Z" fill="white"/>
<path fill-rule="evenodd" clip-rule="evenodd" d="M63.533 17.5014C63.785 16.7205 64.4849 16.107 65.4087 16.107C66.3885 16.107 67.0464 16.6368 67.2145 17.5014H63.533ZM65.4648 14.7684C63.449 14.7684 61.8113 16.2325 61.8113 18.4216C61.8113 20.6108 63.449 22.0748 65.3808 22.0748C66.9065 22.0748 67.8723 21.5032 68.5723 20.318L67.1725 19.6208C66.7385 20.1646 66.3466 20.5689 65.4087 20.5689C64.3729 20.5689 63.6169 19.8997 63.5051 18.84H68.8522V18.2264C68.8522 16.2046 67.4524 14.7684 65.4648 14.7684Z" fill="white"/>
<path fill-rule="evenodd" clip-rule="evenodd" d="M40.2276 16.4973H42.2993V21.8796H44.0629V16.4973H46.1348V14.9636H40.2276V16.4973Z" fill="white"/>
<path fill-rule="evenodd" clip-rule="evenodd" d="M79.8518 20.4295C78.8159 20.4295 77.8501 19.6905 77.8501 18.4216C77.8501 17.1527 78.8159 16.4138 79.8518 16.4138C80.8876 16.4138 81.8535 17.1527 81.8535 18.4216C81.8535 19.6905 80.8876 20.4295 79.8518 20.4295ZM79.8518 14.7684C77.9481 14.7684 76.0583 15.9954 76.0583 18.4216C76.0583 20.8478 77.9481 22.0748 79.8518 22.0748C81.7554 22.0748 83.6453 20.8478 83.6453 18.4216C83.6453 15.9954 81.7554 14.7684 79.8518 14.7684Z" fill="white"/>
<path fill-rule="evenodd" clip-rule="evenodd" d="M90.6631 14.9623L88.7489 19.8059L86.8346 14.9623H84.5293V21.8658H86.2059V17.4954L88.0642 21.8658H89.4336L91.2919 17.4954V21.8658H92.9685V14.9623H90.6631Z" fill="white"/>
</g>
<defs>
<clipPath id="clip0_2_90">
<rect width="93" height="24" fill="white"/>
</clipPath>
</defs>
</svg>
