<svg width="85" height="24" viewBox="0 0 85 24" fill="none" xmlns="http://www.w3.org/2000/svg">
<g clip-path="url(#clip0_2_73)">
<path d="M5.98051 0C4.39438 0 2.87321 0.632141 1.75165 1.75736C0.630088 2.88258 0 4.4087 0 6L0 18C0 19.5913 0.630088 21.1174 1.75165 22.2426C2.87321 23.3679 4.39438 24 5.98051 24H17.9415C19.5277 24 21.0488 23.3679 22.1704 22.2426C23.2919 21.1174 23.922 19.5913 23.922 18V0H5.98051Z" fill="white"/>
<path d="M19.7682 8.99757H16.897L14.1618 12V6.00001H11.9465V7.46223C11.8752 7.368 11.7975 7.27539 11.7133 7.18441C11.2599 6.73762 10.7184 6.391 10.1235 6.16686C9.52855 5.94273 8.89345 5.84604 8.25904 5.88303C7.65004 5.85489 7.04286 5.96927 6.48551 6.21713C5.92817 6.46499 5.43593 6.83953 5.04773 7.31113C4.73358 7.69691 4.5059 8.14601 4.38015 8.62793C4.2544 9.10984 4.23355 9.61326 4.31899 10.104C4.83397 12.4143 6.9716 12.7847 8.54082 12.9894C9.77967 13.1503 10.9699 13.3794 10.9359 14.4858C10.9019 15.5922 9.60963 15.909 8.74486 15.909C6.53436 15.909 6.46148 14.2713 6.46148 14.2713H4.10037C4.14118 15.1703 4.48358 16.0291 5.07202 16.7084C5.89793 17.6393 7.13678 18.1072 8.75458 18.1072C9.91811 18.1336 11.0513 17.7333 11.9416 16.9813V17.9561H14.157V15.1535L14.944 14.2957L17.1836 17.9854H19.7634L16.5181 12.58L19.7682 8.99757ZM6.53922 9.58246C6.34489 8.72462 7.19508 7.96426 8.30276 7.96426C9.27441 7.96426 10.2898 8.18847 10.6687 9.58246H11.9465V11.6978C10.3578 10.3916 6.90844 11.2104 6.53922 9.58246Z" fill="#3B82F6"/>
<path d="M33.9203 11.3712C33.8492 11.2535 33.7696 11.1411 33.6823 11.0349C33.5771 10.922 33.4559 10.8251 33.3228 10.7474C33.1708 10.6561 33.0074 10.5857 32.8369 10.5378C32.6099 10.4806 32.3762 10.4544 32.1422 10.4598C32.0102 10.4623 31.8786 10.4754 31.7487 10.4988C31.5823 10.5376 31.4197 10.5915 31.2629 10.6596C31.0892 10.7537 30.9263 10.8665 30.777 10.9959C30.6087 11.1511 30.4703 11.3362 30.369 11.5418C30.2238 11.804 30.1189 12.0866 30.058 12.3802C29.9785 12.7599 29.941 13.1473 29.9463 13.5353C29.9402 13.9722 29.9908 14.4081 30.0969 14.8318C30.1802 15.1806 30.3268 15.5111 30.5293 15.8067C30.7076 16.0601 30.9464 16.2646 31.224 16.4013C31.5028 16.5469 31.8134 16.6206 32.1276 16.6158C32.4603 16.6283 32.7918 16.5684 33.0993 16.4403C33.3268 16.3331 33.5301 16.1805 33.6969 15.9919C33.8327 15.8286 33.9381 15.642 34.0078 15.4411C34.0807 15.2559 34.1438 15.0804 34.1827 14.9537H36.0288C35.9555 15.4664 35.7909 15.9616 35.543 16.4159C35.3252 16.8084 35.035 17.1558 34.6879 17.4395C34.3404 17.7101 33.9447 17.9119 33.522 18.0341C32.5014 18.3413 31.4074 18.2932 30.4175 17.8976C29.9285 17.6859 29.4946 17.364 29.1495 16.9569C28.7894 16.5175 28.5202 16.0105 28.3576 15.4655C28.1654 14.834 28.0736 14.176 28.0856 13.5158C28.0783 13.014 28.1321 12.5131 28.2459 12.0244C28.3322 11.6143 28.4727 11.2176 28.6637 10.8448C28.8445 10.5161 29.0702 10.2142 29.3341 9.94801C29.578 9.70037 29.8581 9.49161 30.1649 9.329C30.4649 9.16689 30.7828 9.04092 31.1123 8.9537C31.4409 8.88032 31.7764 8.84273 32.1131 8.84159C32.5486 8.83459 32.9831 8.8854 33.4054 8.99269C33.7454 9.08672 34.072 9.22433 34.377 9.40211C34.6461 9.55971 34.8901 9.75686 35.1009 9.987C35.2843 10.1948 35.447 10.4201 35.5867 10.6596C35.6988 10.8841 35.7931 11.1172 35.8685 11.3566C35.9284 11.5682 35.9658 11.7854 35.9802 12.0049H34.1535L34.0661 11.6978C34.0276 11.5847 33.9788 11.4754 33.9203 11.3712Z" fill="white"/>
<path d="M40.9745 11.381H43.2385L40.5276 14.1349L43.3648 18.0049H41.1348L39.1915 15.2023L38.4968 15.9139V18.0049H36.7916V11.381H38.5017V13.896L40.9745 11.381Z" fill="white"/>
<path d="M43.287 13.2868C43.426 12.8741 43.655 12.4977 43.9575 12.1852C44.2567 11.8713 44.6195 11.6253 45.0214 11.4638C45.4673 11.2833 45.9447 11.1938 46.4255 11.2006C46.9143 11.1925 47.3998 11.282 47.8538 11.4638C48.2535 11.6242 48.6133 11.8704 48.908 12.1852C49.1993 12.5137 49.4267 12.8939 49.5785 13.3062C49.8764 14.2199 49.8764 15.205 49.5785 16.1186C49.4278 16.5315 49.2003 16.9119 48.908 17.2396C48.6094 17.5498 48.2506 17.7953 47.8538 17.961C47.3998 18.1429 46.9143 18.2323 46.4255 18.2242C45.9447 18.231 45.4673 18.1416 45.0214 17.961C44.6224 17.7942 44.2606 17.5489 43.9575 17.2396C43.6481 16.9117 43.4186 16.5163 43.287 16.0845C42.9697 15.1741 42.9697 14.1825 43.287 13.2721V13.2868ZM44.9243 15.4265C44.9625 15.6617 45.0503 15.886 45.1818 16.0845C45.3011 16.2847 45.468 16.4521 45.6676 16.5719C45.8964 16.6926 46.1526 16.7514 46.4109 16.7425C46.682 16.7549 46.9516 16.6961 47.1931 16.5719C47.3887 16.4575 47.555 16.299 47.6789 16.1088C47.8062 15.9118 47.8937 15.6915 47.9364 15.4606C48.04 14.9607 48.04 14.4447 47.9364 13.9448C47.8929 13.7095 47.8055 13.4846 47.6789 13.2819C47.5456 13.0749 47.3583 12.9086 47.1372 12.8012C46.9162 12.6937 46.67 12.6493 46.4255 12.6726C46.1671 12.6637 45.9109 12.7225 45.6822 12.8432C45.4838 12.9645 45.3172 13.1316 45.1963 13.3306C45.0608 13.5284 44.9681 13.7526 44.9243 13.9886C44.871 14.2354 44.8417 14.4868 44.8368 14.7392C44.844 14.9706 44.8733 15.2007 44.9243 15.4265Z" fill="white"/>
<path d="M53.0278 12.775L53.0035 14.0081C52.9744 14.7051 52.9258 15.3144 52.8627 15.8408C52.8087 16.2891 52.696 16.7283 52.5274 17.147C52.3906 17.4632 52.1727 17.7374 51.8959 17.9415C51.5909 18.1283 51.2375 18.2199 50.8805 18.2047C50.6813 18.2047 50.521 18.2047 50.3947 18.1803C50.2713 18.1603 50.1506 18.1259 50.0352 18.078V16.6158L50.2586 16.6889C50.3621 16.6977 50.4661 16.6977 50.5696 16.6889C50.696 16.6949 50.8197 16.6512 50.9145 16.567C51.0419 16.4549 51.1332 16.3073 51.1768 16.143C51.2631 15.8585 51.3217 15.5663 51.3517 15.2705C51.3858 14.9001 51.41 14.4273 51.4246 13.8424L51.4732 11.3371H56.7833V18.0049H55.0877V12.775H53.0278Z" fill="white"/>
<path d="M62.1856 11.381H64.469L61.7435 14.1349L64.5856 18.0049H62.3557L60.4124 15.2023L59.7176 15.9139V18.0049H58.0075V11.381H59.7176V13.896L62.1856 11.381Z" fill="white"/>
<path d="M64.503 13.2868C64.6436 12.8691 64.8722 12.4867 65.1735 12.1657C65.4754 11.8527 65.8395 11.6069 66.2423 11.4444C66.6881 11.2634 67.1655 11.1739 67.6463 11.1812C68.1335 11.173 68.6175 11.2625 69.0698 11.4444C69.4726 11.6079 69.8331 11.8613 70.124 12.1852C70.4187 12.5112 70.6465 12.8921 70.7945 13.3063C71.0923 14.2199 71.0923 15.205 70.7945 16.1186C70.6475 16.5333 70.4196 16.9144 70.124 17.2396C69.8272 17.552 69.468 17.7978 69.0698 17.961C68.6175 18.1429 68.1335 18.2323 67.6463 18.2242C67.1655 18.2314 66.6881 18.1419 66.2423 17.961C65.8424 17.793 65.4793 17.5479 65.1735 17.2396C64.8711 16.9195 64.6423 16.5369 64.503 16.1186C64.1921 15.2071 64.1921 14.2178 64.503 13.3063V13.2868ZM66.1451 15.4265C66.1871 15.6645 66.2799 15.8907 66.4172 16.0894C66.5361 16.2899 66.7031 16.4575 66.903 16.5768C67.1335 16.6975 67.3913 16.7563 67.6512 16.7474C67.9174 16.7572 68.1816 16.6985 68.4188 16.5768C68.6144 16.4624 68.7807 16.3038 68.9046 16.1137C69.0319 15.9166 69.1194 15.6964 69.1621 15.4655C69.2657 14.9655 69.2657 14.4496 69.1621 13.9496C69.1186 13.7144 69.0313 13.4895 68.9046 13.2868C68.7716 13.0781 68.5837 12.9103 68.3616 12.802C68.1396 12.6936 67.8921 12.6488 67.6463 12.6726C67.3864 12.6637 67.1287 12.7225 66.8981 12.8432C66.6998 12.9645 66.5332 13.1316 66.4123 13.3306C66.2767 13.5285 66.1841 13.7526 66.1403 13.9886C66.0846 14.235 66.0553 14.4866 66.0528 14.7392C66.0594 14.9709 66.0904 15.2013 66.1451 15.4265Z" fill="white"/>
<path d="M76.1142 11.459C76.3744 11.5114 76.6251 11.6035 76.8576 11.7319C77.0707 11.8637 77.2464 12.0484 77.3677 12.2681C77.5021 12.5332 77.5657 12.8288 77.5523 13.1259C77.5586 13.2904 77.5389 13.455 77.494 13.6133C77.4606 13.7486 77.4012 13.8761 77.3191 13.9886C77.2536 14.0911 77.1696 14.1804 77.0713 14.2518C76.978 14.3244 76.877 14.3865 76.7701 14.437C77.0801 14.5297 77.3481 14.7279 77.528 14.9976C77.7073 15.2705 77.7988 15.592 77.7903 15.9188C77.7956 16.2086 77.7445 16.4967 77.6397 16.7669C77.5368 17.0125 77.3808 17.2323 77.1831 17.4102C76.9768 17.6021 76.7315 17.7468 76.464 17.8343C76.1609 17.9388 75.842 17.9899 75.5215 17.9854H71.8195V11.381H75.2203C75.5201 11.3783 75.8194 11.4044 76.1142 11.459ZM75.3466 13.935C75.4526 13.9072 75.5529 13.861 75.643 13.7985C75.7186 13.7468 75.775 13.6714 75.8033 13.5841C75.8401 13.4844 75.8567 13.3783 75.8519 13.2721C75.8555 13.1787 75.8389 13.0856 75.8033 12.9992C75.7685 12.9168 75.7133 12.8446 75.643 12.7896C75.5571 12.7261 75.4598 12.6797 75.3564 12.6531C75.2077 12.6123 75.0537 12.5942 74.8997 12.5995H73.5345V13.9837H74.8511C75.0174 13.9825 75.1833 13.9662 75.3466 13.935ZM75.4584 16.7084C75.5867 16.6635 75.7042 16.5921 75.8033 16.4988C75.8815 16.4289 75.9373 16.3373 75.9636 16.2356C75.9902 16.1471 76.0033 16.055 76.0025 15.9626C76.0109 15.8232 75.9894 15.6836 75.9393 15.5532C75.9052 15.4489 75.8344 15.3605 75.7402 15.3046C75.636 15.2252 75.5111 15.1777 75.3807 15.1682C75.2055 15.1406 75.0284 15.1276 74.8511 15.1292H73.5345V16.7863H74.8511C75.0564 16.7935 75.2615 16.7671 75.4584 16.7084Z" fill="white"/>
<path d="M78.4851 13.2868C78.6227 12.8706 78.8499 12.4898 79.1504 12.1715C79.451 11.8531 79.8176 11.6049 80.2243 11.4444C80.6684 11.2634 81.1442 11.1739 81.6235 11.1812C82.1123 11.173 82.5978 11.2625 83.0518 11.4444C83.4539 11.6094 83.8141 11.8625 84.1061 12.1852C84.4007 12.5112 84.6285 12.8921 84.7765 13.3063C85.0744 14.2199 85.0744 15.205 84.7765 16.1186C84.6295 16.5333 84.4016 16.9144 84.1061 17.2396C83.8136 17.5411 83.4632 17.7799 83.0761 17.9415C82.6221 18.1234 82.1366 18.2128 81.6478 18.2047C81.1685 18.212 80.6927 18.1224 80.2486 17.9415C79.8481 17.7748 79.4847 17.5295 79.1798 17.2201C78.8775 16.9 78.6486 16.5174 78.5094 16.0991C78.192 15.1887 78.192 14.1972 78.5094 13.2868H78.4851ZM80.1223 15.4265C80.1643 15.6645 80.2571 15.8907 80.3944 16.0894C80.5137 16.2896 80.6806 16.457 80.8802 16.5768C81.1092 16.6969 81.3652 16.7556 81.6235 16.7474C81.8897 16.7576 82.1541 16.6989 82.3911 16.5768C82.5874 16.4633 82.7539 16.3045 82.8769 16.1137C83.0078 15.918 83.0971 15.6973 83.1393 15.4655C83.2364 14.9649 83.2364 14.4502 83.1393 13.9496C83.0963 13.7135 83.0071 13.4882 82.8769 13.2868C82.751 13.0996 82.585 12.9431 82.3911 12.8286C82.1512 12.7109 81.8852 12.6572 81.6186 12.6726C81.3604 12.6644 81.1043 12.7231 80.8753 12.8432C80.677 12.9645 80.5104 13.1316 80.3895 13.3306C80.2539 13.5284 80.1612 13.7526 80.1174 13.9886C80.0641 14.2354 80.0348 14.4868 80.03 14.7392C80.0387 14.9708 80.0697 15.2009 80.1223 15.4265Z" fill="white"/>
</g>
<defs>
<clipPath id="clip0_2_73">
<rect width="85" height="24" fill="white"/>
</clipPath>
</defs>
</svg>
