<svg width="94" height="24" viewBox="0 0 94 24" fill="none" xmlns="http://www.w3.org/2000/svg">
<g clip-path="url(#clip0_2_49)">
<path fill-rule="evenodd" clip-rule="evenodd" d="M64.7626 11.0888C64.7729 11.6412 65.2339 12.0852 65.7881 12.0852C66.3423 12.0852 66.8032 11.6412 66.8032 11.0888V8.80706H70.1491V11.0888C70.1491 11.6412 70.6204 12.0852 71.1746 12.0852C71.7288 12.0852 72.1898 11.6412 72.1898 11.0888V4.5171C72.1898 3.96472 71.7184 3.52076 71.1642 3.52076C70.6101 3.52076 70.1491 3.96472 70.1491 4.5171V6.79888H66.7929V4.5171C66.7929 3.96472 66.3319 3.52076 65.7777 3.52076C65.2235 3.52076 64.7626 3.96472 64.7626 4.5171V11.0888ZM40.4196 5.61153V11.0888C40.4196 11.6515 40.891 12.0852 41.4503 12.0852C42.0201 12.0852 42.481 11.6464 42.481 11.0888V5.61153H44.0245C44.589 5.61153 45.0396 5.16756 45.0396 4.60486C45.0396 4.06281 44.5838 3.60852 44.0245 3.60852H38.8762C38.3116 3.60852 37.861 4.06281 37.861 4.60486C37.861 5.16756 38.3168 5.61153 38.8762 5.61153H40.4196ZM33.2411 8.08948L30.8534 4.02151C30.5789 3.56206 30.004 3.39686 29.5067 3.61884C29.0044 3.90794 28.8438 4.5171 29.1338 5.00237L31.9825 9.79824C31.6355 10.0254 31.2625 10.108 30.8586 10.139C30.3044 10.1906 29.9315 10.5829 29.9315 11.1043C29.9315 11.7238 30.4339 12.0697 30.9466 12.0697C32.1016 12.0697 33.1116 11.4863 33.8419 10.6707C34.5048 9.9273 35.0072 8.98774 35.4785 8.11013L37.1566 4.97139C37.4104 4.48613 37.2551 3.85115 36.7371 3.60336C36.2503 3.37105 35.6546 3.57754 35.3957 4.05765L33.2411 8.08948ZM73.8161 7.81071C73.8161 10.268 75.6444 12.0852 78.1253 12.0852C80.6062 12.0852 82.4345 10.2577 82.4345 7.81071C82.4345 5.35341 80.5907 3.52592 78.1253 3.52592C75.6444 3.52592 73.8161 5.35341 73.8161 7.81071ZM80.368 7.81071C80.368 9.12196 79.4564 10.108 78.1201 10.108C76.7787 10.108 75.8723 9.1168 75.8723 7.81071C75.8723 6.49946 76.7838 5.50312 78.1201 5.50312C79.4616 5.50312 80.368 6.49946 80.368 7.81071ZM89.4473 5.61669C90.0119 5.61669 90.4573 5.17789 90.4573 4.63067C90.4573 4.09378 90.0119 3.63949 89.4473 3.63949H87.9091C85.3971 3.63949 83.6102 5.42568 83.6102 7.8262C83.6102 10.2216 85.3971 12.0129 87.9091 12.0129H89.4473C90.0119 12.0129 90.4573 11.5741 90.4573 11.0217C90.4573 10.4848 90.0119 10.0305 89.4473 10.0305H87.8521C86.5107 10.0305 85.6302 9.09099 85.6302 7.82104C85.6302 6.55109 86.5158 5.61153 87.8521 5.61153H89.4473V5.61669ZM52.0007 11.7909C52.3788 12.1781 53.0158 12.1936 53.4043 11.8064C53.7824 11.4347 53.8238 10.7946 53.4457 10.4074L50.856 7.7436L53.3421 5.18305C53.715 4.79587 53.6788 4.1609 53.3007 3.79953C52.9226 3.41235 52.2855 3.42783 51.9126 3.81501L49.3437 6.453C49.1209 6.68531 48.9656 6.71628 48.7998 6.71628C48.546 6.71628 48.3285 6.54076 48.3285 6.27748V4.5171C48.3285 3.96472 47.8675 3.52076 47.3133 3.52076C46.7592 3.52076 46.2982 3.96472 46.2982 4.5171V11.094C46.2982 11.6464 46.7592 12.0903 47.3133 12.0903C47.8675 12.0903 48.3285 11.6464 48.3285 11.094V9.22521C48.3285 8.97225 48.546 8.79673 48.7998 8.79673C48.9656 8.79673 49.1209 8.8277 49.3437 9.06001L52.0007 11.7909ZM54.5282 7.81071C54.5282 10.268 56.3565 12.0852 58.8374 12.0852C61.3183 12.0852 63.1466 10.2577 63.1466 7.81071C63.1466 5.35341 61.3028 3.52592 58.8374 3.52592C56.3565 3.52592 54.5282 5.35341 54.5282 7.81071ZM61.0852 7.81071C61.0852 9.12196 60.1737 10.108 58.8374 10.108C57.4959 10.108 56.5896 9.1168 56.5896 7.81071C56.5896 6.49946 57.5011 5.50312 58.8374 5.50312C60.1737 5.50312 61.0852 6.49946 61.0852 7.81071ZM92.9797 7.00538C93.5235 7.00538 94.0052 6.56141 94.0052 5.97806C94.0052 5.41536 93.5235 4.96623 92.9797 4.96623C92.4203 4.96623 91.949 5.42052 91.949 5.97806C91.9438 6.55625 92.4151 7.00538 92.9797 7.00538ZM92.9797 10.6552C93.5235 10.6552 94.0052 10.1957 94.0052 9.62788C94.0052 9.06518 93.5235 8.62121 92.9797 8.62121C92.4203 8.62121 91.949 9.06518 91.949 9.62788C91.9438 10.1906 92.4151 10.6552 92.9797 10.6552Z" fill="white"/>
<path d="M30.6928 16.4629C31.6821 16.4629 32.2259 17.196 32.2259 18.0994C32.2259 19.0028 31.6873 19.7359 30.6928 19.7359C29.7036 19.7359 29.1597 19.0028 29.1597 18.0994C29.1649 17.196 29.7036 16.4629 30.6928 16.4629ZM30.6928 19.4003C31.4127 19.4003 31.853 18.8944 31.853 18.0994C31.853 17.3044 31.4127 16.7985 30.6928 16.7985C29.9729 16.7985 29.5326 17.3044 29.5326 18.0994C29.5326 18.8944 29.9729 19.4003 30.6928 19.4003Z" fill="white"/>
<path d="M35.5511 16.53C35.6754 16.53 35.7323 16.6281 35.7323 16.7365V19.4674C35.7323 19.5758 35.6754 19.6739 35.5511 19.6739C35.4268 19.6739 35.3698 19.5758 35.3698 19.4674V18.2181H33.4793V19.4674C33.4793 19.5758 33.4223 19.6739 33.298 19.6739C33.1737 19.6739 33.1168 19.5758 33.1168 19.4674V16.7365C33.1168 16.6281 33.1737 16.53 33.298 16.53C33.4223 16.53 33.4793 16.6281 33.4793 16.7365V17.8826H35.3698V16.7365C35.3698 16.6229 35.4268 16.53 35.5511 16.53Z" fill="white"/>
<path d="M36.9236 19.0235C37.1048 18.5588 37.1825 17.6348 37.2136 16.69C37.2136 16.592 37.2861 16.53 37.3897 16.53H38.9487C39.0782 16.53 39.1403 16.6178 39.1403 16.7262V19.4674C39.1403 19.5758 39.0834 19.6739 38.9591 19.6739C38.8347 19.6739 38.7778 19.5758 38.7778 19.4674V16.8604H37.5503C37.514 17.578 37.4622 18.6311 37.2136 19.2093C37.0582 19.5707 36.8355 19.7049 36.5766 19.7049C36.4471 19.7049 36.302 19.6533 36.3176 19.4984C36.3383 19.3487 36.4315 19.359 36.5507 19.359C36.7216 19.359 36.8459 19.2145 36.9236 19.0235Z" fill="white"/>
<path d="M40.2746 16.9378C40.2228 16.814 40.285 16.7468 40.3834 16.6952C40.6216 16.5713 41.0256 16.4629 41.4089 16.4629C42.2531 16.4629 42.6001 16.8914 42.6001 17.5986V19.4674C42.6001 19.5758 42.5432 19.6739 42.4189 19.6739C42.2946 19.6739 42.2376 19.5758 42.2376 19.4674V18.9873C42.0822 19.3487 41.7041 19.7359 41.0101 19.7359C40.3937 19.7359 39.969 19.421 39.969 18.8015C39.969 17.9755 40.72 17.7432 41.3985 17.7432C41.7611 17.7432 42.0097 17.7742 42.2428 17.8051V17.6244C42.2428 17.1185 41.9838 16.7985 41.3778 16.7985C41.0619 16.7985 40.8288 16.8759 40.5647 16.9791C40.4559 17.0204 40.3212 17.0463 40.2746 16.9378ZM42.2376 18.2491V18.1252C41.9734 18.0891 41.787 18.0633 41.4451 18.0633C40.8081 18.0633 40.3368 18.2543 40.3368 18.786C40.3368 19.1525 40.5802 19.4003 41.0515 19.4003C41.8595 19.4003 42.2376 18.7395 42.2376 18.2491Z" fill="white"/>
<path d="M43.8743 19.581C43.838 19.6275 43.7759 19.6688 43.6878 19.6688C43.5635 19.6688 43.5065 19.5707 43.5065 19.4623V16.7313C43.5065 16.6229 43.5635 16.5248 43.6878 16.5248C43.8121 16.5248 43.8691 16.6229 43.8691 16.7313V19.0854L45.8062 16.6178C45.858 16.561 45.9097 16.53 45.9874 16.53C46.1117 16.53 46.1687 16.6281 46.1687 16.7365V19.4674C46.1687 19.5758 46.1117 19.6739 45.9874 19.6739C45.8631 19.6739 45.8062 19.5758 45.8062 19.4674V17.134L43.8743 19.581ZM43.983 15.544C43.9468 15.4459 43.9468 15.3427 44.0348 15.2962C44.1384 15.2394 44.2265 15.3065 44.2783 15.3994C44.3922 15.6059 44.5735 15.7608 44.8583 15.7608C45.1432 15.7608 45.3193 15.6059 45.4384 15.3994C45.4902 15.3117 45.5783 15.2446 45.6819 15.2962C45.7699 15.3427 45.7699 15.4511 45.7337 15.544C45.6456 15.7711 45.3556 16.0706 44.8583 16.0706C44.3663 16.0706 44.0763 15.7711 43.983 15.544Z" fill="white"/>
<path d="M49.5249 16.53C49.6492 16.53 49.7062 16.6281 49.7062 16.7365V19.4674C49.7062 19.5758 49.6492 19.6739 49.5249 19.6739C49.4006 19.6739 49.3437 19.5758 49.3437 19.4674V18.2181H47.4532V19.4674C47.4532 19.5758 47.3962 19.6739 47.2719 19.6739C47.1476 19.6739 47.0906 19.5758 47.0906 19.4674V16.7365C47.0906 16.6281 47.1476 16.53 47.2719 16.53C47.3962 16.53 47.4532 16.6281 47.4532 16.7365V17.8826H49.3437V16.7365C49.3488 16.6229 49.4058 16.53 49.5249 16.53Z" fill="white"/>
<path d="M50.7421 17.9394C50.7421 17.8413 50.8146 17.7742 50.9182 17.7742H52.6066C52.7102 17.7742 52.7827 17.8464 52.7827 17.9394C52.7827 18.0426 52.7102 18.1045 52.6066 18.1045H50.9182C50.8146 18.1045 50.7421 18.0426 50.7421 17.9394Z" fill="white"/>
<path d="M54.176 19.4674C54.176 19.5758 54.119 19.6739 53.9947 19.6739C53.8704 19.6739 53.8134 19.5758 53.8134 19.4674V16.7365C53.8134 16.6281 53.8704 16.53 53.9947 16.53H55.5589C55.6624 16.53 55.735 16.6023 55.735 16.6952C55.735 16.7985 55.6624 16.8604 55.5589 16.8604H54.176V19.4674Z" fill="white"/>
<path d="M56.833 19.581C56.7967 19.6274 56.7346 19.6687 56.6465 19.6687C56.5222 19.6687 56.4652 19.5707 56.4652 19.4622V16.7313C56.4652 16.6229 56.5222 16.5248 56.6465 16.5248C56.7708 16.5248 56.8278 16.6229 56.8278 16.7313V19.0854L58.7649 16.6178C58.8167 16.561 58.8685 16.53 58.9461 16.53C59.0705 16.53 59.1274 16.6281 59.1274 16.7365V19.4674C59.1274 19.5758 59.0705 19.6739 58.9461 19.6739C58.8218 19.6739 58.7649 19.5758 58.7649 19.4674V17.134L56.833 19.581Z" fill="white"/>
<path d="M60.5414 16.8604V19.4674C60.5414 19.5758 60.4844 19.6739 60.3601 19.6739C60.2358 19.6739 60.1788 19.5758 60.1788 19.4674V16.7365C60.1788 16.6281 60.241 16.53 60.3549 16.53H62.5199C62.6442 16.53 62.7064 16.6281 62.7064 16.7365V19.4674C62.7064 19.5758 62.6494 19.6739 62.5251 19.6739C62.4008 19.6739 62.3438 19.5758 62.3438 19.4674V16.8604H60.5414Z" fill="white"/>
<path d="M65.757 19.2093C65.8709 19.1525 65.9642 19.1525 66.016 19.2403C66.0678 19.328 66.0211 19.4261 65.9383 19.4829C65.6741 19.6584 65.3116 19.7307 64.9594 19.7307C63.9546 19.7307 63.4729 19.1164 63.4729 18.1149C63.4729 17.1701 64.0064 16.4577 64.9387 16.4577C65.7881 16.4577 66.1662 17.0617 66.1662 17.6761C66.1662 17.7741 66.161 17.8671 66.1454 17.9497C66.1195 18.1407 66.0367 18.2646 65.8036 18.2646H63.8355C63.8872 18.9976 64.2861 19.3951 64.9542 19.3951C65.2701 19.4003 65.5187 19.3229 65.757 19.2093ZM63.8406 17.9497H65.8191C65.8295 17.8671 65.8295 17.7845 65.8295 17.707C65.8191 17.1805 65.5343 16.7985 64.9179 16.7985C64.2912 16.7985 63.8924 17.2063 63.8406 17.9497Z" fill="white"/>
<path d="M69.8073 18.0013C69.8073 18.9305 69.3567 19.7359 68.2949 19.7359C67.9531 19.7359 67.6423 19.6739 67.3989 19.5345V20.7477C67.3989 20.8561 67.3419 20.9542 67.2176 20.9542C67.0933 20.9542 67.0363 20.8561 67.0363 20.7477V16.7314C67.0363 16.6229 67.0933 16.5249 67.2176 16.5249C67.3419 16.5249 67.3989 16.6229 67.3989 16.7314V17.2528C67.6061 16.7314 68.01 16.4629 68.5694 16.4629C69.4033 16.4629 69.8073 17.103 69.8073 18.0013ZM67.3989 18.5485V19.1783C67.6734 19.3384 67.9582 19.4055 68.3001 19.4055C69.1547 19.4055 69.4344 18.7499 69.4344 18.0065C69.4344 17.3095 69.165 16.7985 68.5176 16.7985C67.5801 16.7985 67.3989 17.7535 67.3989 18.5485Z" fill="white"/>
<path d="M70.7551 16.53C70.8587 16.53 70.9156 16.5816 70.983 16.6797L72.081 18.2284L73.2101 16.6952C73.2826 16.5971 73.3448 16.5352 73.4535 16.5352C73.5778 16.5352 73.6193 16.6384 73.6193 16.7417V19.4726C73.6193 19.581 73.5623 19.6791 73.438 19.6791C73.3137 19.6791 73.2567 19.581 73.2567 19.4726V17.1495L72.2312 18.5537C72.1276 18.7034 71.967 18.6827 71.879 18.5537L70.9156 17.2011V19.4726C70.9156 19.581 70.869 19.6791 70.7499 19.6791C70.6256 19.6791 70.5842 19.581 70.5842 19.4726V16.7417C70.579 16.6178 70.6308 16.53 70.7551 16.53Z" fill="white"/>
<path d="M74.7639 16.9378C74.7121 16.814 74.7743 16.7468 74.8727 16.6952C75.1109 16.5713 75.5149 16.4629 75.8982 16.4629C76.7424 16.4629 77.0894 16.8914 77.0894 17.5986V19.4674C77.0894 19.5758 77.0325 19.6739 76.9082 19.6739C76.7838 19.6739 76.7269 19.5758 76.7269 19.4674V18.9873C76.5715 19.3487 76.1934 19.7359 75.4994 19.7359C74.883 19.7359 74.4583 19.421 74.4583 18.8015C74.4583 17.9755 75.2093 17.7432 75.8878 17.7432C76.2504 17.7432 76.499 17.7742 76.732 17.8051V17.6244C76.732 17.1185 76.4731 16.7985 75.8671 16.7985C75.5512 16.7985 75.3181 16.8759 75.0539 16.9791C74.9452 17.0204 74.8105 17.0463 74.7639 16.9378ZM76.7269 18.2491V18.1252C76.4627 18.0891 76.2763 18.0633 75.9344 18.0633C75.2974 18.0633 74.8261 18.2543 74.8261 18.786C74.8261 19.1525 75.0695 19.4003 75.5408 19.4003C76.3488 19.4003 76.7269 18.7395 76.7269 18.2491Z" fill="white"/>
<path d="M80.7719 18.0013C80.7719 18.9305 80.3213 19.7359 79.2596 19.7359C78.9177 19.7359 78.607 19.6739 78.3635 19.5345V20.7477C78.3635 20.8561 78.3066 20.9542 78.1822 20.9542C78.0579 20.9542 78.001 20.8561 78.001 20.7477V16.7314C78.001 16.6229 78.0579 16.5249 78.1822 16.5249C78.3066 16.5249 78.3635 16.6229 78.3635 16.7314V17.2528C78.5707 16.7314 78.9747 16.4629 79.5341 16.4629C80.3679 16.4629 80.7719 17.103 80.7719 18.0013ZM78.3635 18.5485V19.1783C78.638 19.3384 78.9229 19.4055 79.2647 19.4055C80.1193 19.4055 80.399 18.7499 80.399 18.0065C80.399 17.3095 80.1297 16.7985 79.4823 16.7985C78.5448 16.7985 78.3635 17.7535 78.3635 18.5485Z" fill="white"/>
<path d="M81.8492 16.53C81.9736 16.53 82.0305 16.6281 82.0305 16.7365V17.9806L83.429 16.6126C83.517 16.5249 83.6206 16.499 83.7035 16.5816C83.7656 16.6436 83.7604 16.7572 83.6724 16.8449L82.3724 18.0632L83.8226 19.3384C83.9054 19.4158 83.9313 19.5294 83.8588 19.612C83.7811 19.7101 83.6517 19.6636 83.5636 19.5862L82.0305 18.213V19.4623C82.0305 19.5707 81.9736 19.6688 81.8492 19.6688C81.7249 19.6688 81.668 19.5707 81.668 19.4623V16.7313C81.668 16.6229 81.7249 16.53 81.8492 16.53Z" fill="white"/>
<path d="M86.7904 19.2093C86.9043 19.1525 86.9975 19.1525 87.0493 19.2403C87.1011 19.328 87.0545 19.4261 86.9716 19.4829C86.7075 19.6584 86.3449 19.7307 85.9927 19.7307C84.9879 19.7307 84.5063 19.1164 84.5063 18.1149C84.5063 17.1701 85.0397 16.4577 85.972 16.4577C86.8214 16.4577 87.1995 17.0617 87.1995 17.6761C87.1995 17.7741 87.1943 17.8671 87.1788 17.9497C87.1529 18.1407 87.07 18.2646 86.837 18.2646H84.8688C84.9206 18.9976 85.3194 19.3951 85.9876 19.3951C86.3035 19.4003 86.5521 19.3229 86.7904 19.2093ZM84.874 17.9497H86.8525C86.8629 17.8671 86.8629 17.7845 86.8629 17.707C86.8525 17.1805 86.5676 16.7985 85.9513 16.7985C85.3246 16.7985 84.9258 17.2063 84.874 17.9497Z" fill="white"/>
<path d="M89.3127 19.4674C89.3127 19.5758 89.2557 19.6739 89.1314 19.6739C89.0071 19.6739 88.9501 19.5758 88.9501 19.4674V16.8604H87.9194C87.8159 16.8604 87.7433 16.7985 87.7433 16.6952C87.7433 16.5971 87.8159 16.53 87.9194 16.53H90.3382C90.4418 16.53 90.5143 16.6023 90.5143 16.6952C90.5143 16.7985 90.4418 16.8604 90.3382 16.8604H89.3075V19.4674H89.3127Z" fill="white"/>
<path fill-rule="evenodd" clip-rule="evenodd" d="M22.0019 2.59669C22.0019 1.16154 20.8365 0 19.3967 0H2.60521C1.16535 0 0 1.16154 0 2.59669V13.0299C0 19.0854 4.92556 23.9948 11.0009 23.9948C17.0763 23.9948 22.0019 19.0854 22.0019 13.0299C22.0019 8.87933 22.0071 6.75242 22.0019 2.59669Z" fill="white"/>
<path fill-rule="evenodd" clip-rule="evenodd" d="M10.2758 15.9312C10.2758 15.3633 9.8097 14.909 9.22961 14.909C8.65988 14.909 8.2041 15.3633 8.2041 15.9312C8.2041 16.499 8.65988 16.9636 9.22961 16.9636C9.8097 16.9636 10.2758 16.499 10.2758 15.9312ZM13.9532 15.9312C13.9532 15.3633 13.487 14.909 12.9173 14.909C12.3476 14.909 11.8814 15.3633 11.8814 15.9312C11.8814 16.499 12.3476 16.9636 12.9173 16.9636C13.487 16.9636 13.9532 16.499 13.9532 15.9312Z" fill="#3B82F6"/>
</g>
<defs>
<clipPath id="clip0_2_49">
<rect width="94" height="24" fill="white"/>
</clipPath>
</defs>
</svg>
