<svg width="79" height="24" viewBox="0 0 79 24" fill="none" xmlns="http://www.w3.org/2000/svg">
<g clip-path="url(#clip0_2_38)">
<path d="M19.3679 20.4138L17.0846 16.6288L14.8485 20.4138H12.1714L15.6107 14.7129L12.1056 9.42022H14.9021L17.1476 12.9539L19.2892 9.42022H21.9662L18.5176 14.8856L22.0607 20.4138H19.3679Z" fill="white"/>
<path d="M30.7623 16.676C30.7623 19.0945 28.9356 20.6022 26.542 20.6022C24.4318 20.6022 22.6552 19.4401 22.4821 16.9115H24.7654C24.9228 18.0109 25.8047 18.482 26.7654 18.482C27.9621 18.482 28.479 17.6811 28.479 16.6445C28.479 15.5609 27.6759 14.8856 26.5578 14.8856C25.6287 14.8856 25.0146 15.3253 24.7311 15.7965H22.5485L23.3031 9.42022H30.4817L30.2426 11.5562H25.1076L24.9038 13.6662C24.9038 13.6662 25.4433 13.0324 27.0775 13.0324C29.0459 13.0324 30.7623 14.3516 30.7623 16.676Z" fill="white"/>
<path d="M22.7525 8.05108C21.5364 3.32243 17.6768 0.000236927 9.66875 0.000236927H3.05176e-05L1.31255 8.85128C2.29989 16.8379 5.36273 19.4074 10.7828 20.3534C10.8084 20.3573 10.9793 20.3817 10.9819 20.1812C10.9828 20.1092 10.9368 20.047 10.8741 20.0205C7.2105 18.482 6.79237 13.4373 6.00999 8.37449L5.40423 4.34019H10.9238C16.0128 4.34019 19.9411 4.26004 22.4291 8.17726C22.4663 8.23265 22.5237 8.27323 22.5919 8.27323C22.6882 8.27323 22.7593 8.19534 22.7593 8.09929C22.7593 8.08255 22.7569 8.06642 22.7525 8.05108Z" fill="white"/>
<path d="M32.6774 14.9087C32.6774 11.4935 35.1636 9.02966 38.6191 9.02966C40.9333 9.02966 43.0285 10.3708 43.6383 12.2109L42.3406 12.6475C41.8715 11.2752 40.3235 10.2772 38.6191 10.2772C35.9766 10.2772 34.1003 12.1953 34.1003 14.9087C34.1003 17.5909 35.9922 19.5557 38.6191 19.5557C40.9958 19.5557 42.8721 17.8559 42.9347 15.6416L37.4621 15.626V14.3628H44.3732C44.6078 18.1054 42.1998 20.8032 38.6191 20.8032C35.1636 20.8032 32.6774 18.3238 32.6774 14.9087Z" fill="white"/>
<path d="M46.0839 12.5384H47.3505V13.5988H47.4912C47.8509 12.8815 48.7264 12.3825 49.602 12.3825C49.9617 12.3825 50.337 12.4604 50.5716 12.5851V13.7859C50.1649 13.6144 49.6959 13.552 49.3988 13.552C48.2105 13.552 47.3818 14.6123 47.3818 16.1718V20.4134H46.0839V12.5384Z" fill="white"/>
<path d="M58.4788 16.4681C58.4788 14.6903 57.2435 13.396 55.5392 13.396C53.8193 13.396 52.5996 14.6903 52.5996 16.4681C52.5996 18.2614 53.8193 19.5557 55.5392 19.5557C57.2435 19.5557 58.4788 18.2614 58.4788 16.4681ZM51.3018 16.4681C51.3018 13.9886 53.0531 12.2265 55.5392 12.2265C58.0097 12.2265 59.7766 13.9886 59.7766 16.4681C59.7766 18.9631 58.0097 20.7253 55.5392 20.7253C53.0531 20.7253 51.3018 18.9631 51.3018 16.4681Z" fill="white"/>
<path d="M68.5048 20.4134H67.2071V19.3374H67.0507C66.5034 20.195 65.6122 20.6941 64.5802 20.6941C62.5631 20.6941 61.2966 19.2439 61.2966 17.2321V12.5384H62.5944V17.2321C62.5944 18.5733 63.3762 19.5245 64.7365 19.5245C66.0656 19.5245 67.2071 18.5109 67.2071 17.123V12.5384H68.5048V20.4134Z" fill="white"/>
<path d="M71.8386 16.4681C71.8386 18.199 73.0738 19.5557 74.7782 19.5557C76.4668 19.5557 77.7021 18.199 77.7021 16.4681C77.7021 14.706 76.4668 13.396 74.7782 13.396C73.0738 13.396 71.8386 14.7371 71.8386 16.4681ZM79 16.4681C79 18.932 77.233 20.7252 74.9345 20.7252C73.668 20.7252 72.6048 20.1794 72.0262 19.2439H71.8855V24H70.5877V12.5384H71.8855V13.7391H72.0262C72.6048 12.7879 73.6211 12.2265 74.9189 12.2265C77.2174 12.2265 79 14.0042 79 16.4681Z" fill="white"/>
</g>
<defs>
<clipPath id="clip0_2_38">
<rect width="79" height="24" fill="white"/>
</clipPath>
</defs>
</svg>
