<svg width="32" height="32" viewBox="0 0 32 32" fill="none" xmlns="http://www.w3.org/2000/svg">
<rect x="0.5" y="0.5" width="31" height="31" rx="7.5" fill="url(#paint0_linear_4202_12132)" stroke="url(#paint1_linear_4202_12132)"/>
<path d="M15.9994 15.7659C15.2661 15.7659 14.6383 15.5048 14.1161 14.9826C13.5939 14.4604 13.3328 13.8326 13.3328 13.0993C13.3328 12.3659 13.5939 11.7382 14.1161 11.216C14.6383 10.6937 15.2661 10.4326 15.9994 10.4326C16.7327 10.4326 17.3605 10.6937 17.8827 11.216C18.405 11.7382 18.6661 12.3659 18.6661 13.0993C18.6661 13.8326 18.405 14.4604 17.8827 14.9826C17.3605 15.5048 16.7327 15.7659 15.9994 15.7659ZM10.2852 21.5681V19.8743C10.2852 19.5012 10.3865 19.1557 10.5892 18.8377C10.7919 18.5198 11.0627 18.2753 11.4016 18.1044C12.1547 17.7352 12.9145 17.4582 13.6808 17.2736C14.4471 17.089 15.2199 16.9967 15.9994 16.9967C16.7789 16.9967 17.5518 17.089 18.3181 17.2736C19.0844 17.4582 19.8441 17.7352 20.5972 18.1044C20.9362 18.2753 21.207 18.5198 21.4097 18.8377C21.6123 19.1557 21.7137 19.5012 21.7137 19.8743V21.5681H10.2852Z" fill="#AFB6C0"/>
<defs>
<linearGradient id="paint0_linear_4202_12132" x1="16" y1="0" x2="16" y2="32" gradientUnits="userSpaceOnUse">
<stop stop-color="#98A1AE" stop-opacity="0.08"/>
<stop offset="0.0001" stop-color="#98A1AE" stop-opacity="0.08"/>
<stop offset="1" stop-color="#1472FF" stop-opacity="0"/>
</linearGradient>
<linearGradient id="paint1_linear_4202_12132" x1="16" y1="0" x2="16" y2="32" gradientUnits="userSpaceOnUse">
<stop stop-color="#98A1AE" stop-opacity="0.32"/>
<stop offset="1" stop-color="#1472FF" stop-opacity="0.16"/>
</linearGradient>
</defs>
</svg>
