<svg width="32" height="32" viewBox="0 0 32 32" fill="none" xmlns="http://www.w3.org/2000/svg">
<rect width="32" height="32" rx="8" fill="url(#paint0_linear_4202_12116)"/>
<path d="M10.2836 17.901C9.75129 17.901 9.30075 17.7166 8.93201 17.3479C8.56327 16.9791 8.37891 16.5286 8.37891 15.9962C8.37891 15.4639 8.56327 15.0134 8.93201 14.6446C9.30075 14.2759 9.75129 14.0915 10.2836 14.0915V12.1867C10.2836 11.8763 10.3965 11.6083 10.6223 11.3825C10.848 11.1568 11.1161 11.0439 11.4265 11.0439H14.0932C14.0932 10.5115 14.2775 10.061 14.6463 9.69227C15.015 9.32353 15.4656 9.13916 15.9979 9.13916C16.5302 9.13916 16.9808 9.32353 17.3495 9.69227C17.7183 10.061 17.9026 10.5115 17.9026 11.0439H20.5693C20.8797 11.0439 21.1478 11.1568 21.3735 11.3825C21.5993 11.6083 21.7122 11.8763 21.7122 12.1867V14.0915C22.2445 14.0915 22.695 14.2759 23.0638 14.6446C23.4325 15.0134 23.6169 15.4639 23.6169 15.9962C23.6169 16.5286 23.4325 16.9791 23.0638 17.3479C22.695 17.7166 22.2445 17.901 21.7122 17.901V21.3296C21.7122 21.64 21.5993 21.908 21.3735 22.1338C21.1478 22.3595 20.8797 22.4724 20.5693 22.4724H11.4265C11.1161 22.4724 10.848 22.3595 10.6223 22.1338C10.3965 21.908 10.2836 21.64 10.2836 21.3296V17.901ZM13.7113 16.5677C13.9756 16.5677 14.2006 16.4751 14.3862 16.2901C14.5718 16.1051 14.6645 15.8805 14.6645 15.6162C14.6645 15.3518 14.572 15.1269 14.387 14.9413C14.202 14.7557 13.9773 14.6629 13.713 14.6629C13.4487 14.6629 13.2238 14.7554 13.0382 14.9405C12.8526 15.1255 12.7598 15.3501 12.7598 15.6144C12.7598 15.8787 12.8523 16.1037 13.0373 16.2893C13.2224 16.4749 13.447 16.5677 13.7113 16.5677ZM18.2828 16.5677C18.5471 16.5677 18.772 16.4751 18.9576 16.2901C19.1432 16.1051 19.236 15.8805 19.236 15.6162C19.236 15.3518 19.1435 15.1269 18.9584 14.9413C18.7734 14.7557 18.5488 14.6629 18.2845 14.6629C18.0202 14.6629 17.7952 14.7554 17.6096 14.9405C17.424 15.1255 17.3312 15.3501 17.3312 15.6144C17.3312 15.8787 17.4238 16.1037 17.6088 16.2893C17.7938 16.4749 18.0184 16.5677 18.2828 16.5677ZM13.1408 19.6153H18.855V18.4725H13.1408V19.6153Z" fill="#F4F5F6"/>
<defs>
<linearGradient id="paint0_linear_4202_12116" x1="16" y1="0" x2="16" y2="32" gradientUnits="userSpaceOnUse">
<stop stop-color="#47A9FF"/>
<stop offset="1" stop-color="#1472FF"/>
</linearGradient>
</defs>
</svg>
