<svg width="127" height="24" viewBox="0 0 127 24" fill="none" xmlns="http://www.w3.org/2000/svg">
<g clip-path="url(#clip0_6208_3870)">
<path d="M44.8285 16.1142C43.9714 19.1999 41.3999 21.2571 37.7142 21.2571C32.9999 21.2571 29.7428 17.9142 29.7428 12.8571C29.7428 7.54277 33.5999 3.68563 39.1714 3.68563C41.3142 3.68563 42.8571 4.19992 43.7142 4.54277L44.2285 9.42849H43.8857C41.9142 6.34277 40.1999 4.37134 38.7428 4.37134C36.7714 4.37134 35.2285 6.77134 35.2285 10.6285C35.2285 15.5142 37.7999 17.3999 40.7142 17.3999C42.3428 17.3999 43.7999 16.7999 44.6571 16.0285H44.8285V16.1142ZM58.2857 12.5142C58.2857 7.7142 57.3428 4.28563 54.8571 4.28563C52.3714 4.28563 51.4285 7.62849 51.4285 12.4285C51.4285 17.2285 52.4571 20.4856 54.8571 20.4856C57.2571 20.4856 58.2857 17.2285 58.2857 12.4285M45.7714 12.4285C45.7714 7.7142 49.8857 3.68563 54.8571 3.68563C59.8285 3.68563 63.9428 7.79992 63.9428 12.5142C63.9428 17.2285 59.8285 21.1713 54.8571 21.1713C49.8857 21.1713 45.7714 17.2285 45.7714 12.5142M72.6857 20.7428H65.5714V20.5713C66.0857 18.8571 66.4285 17.5713 66.4285 14.6571V10.8856C66.4285 8.3142 65.9142 6.94277 64.7142 5.48563L71.6571 3.42849V6.85706H71.8285C72.6857 5.48563 74.4857 3.59992 77.4857 3.59992C80.4857 3.59992 82.6285 5.48563 82.6285 8.3142V14.6571C82.6285 17.4856 82.7999 18.9428 83.3999 20.5713H76.2857C76.8857 18.8571 77.1428 17.3999 77.1428 14.7428V8.65706C77.1428 7.19992 76.4571 6.08563 74.8285 6.08563C73.5428 6.08563 72.5142 6.94277 71.8285 7.79992V14.6571C71.8285 17.4856 72.0857 18.9428 72.6857 20.5713V20.7428ZM86.1428 16.5428V4.97134H84.2571V4.7142L91.1142 0.342773H91.5428V4.28563H103.714V4.97134H91.5428V16.3713C91.5428 18.4285 92.6571 19.0285 93.9428 19.0285C95.1428 19.0285 95.9142 18.5142 95.9142 18.5142H95.9999C95.2285 19.8856 93.4285 21.1713 90.7714 21.1713C88.0285 21.1713 86.1428 19.8856 86.1428 16.5428Z" fill="#E8EAED"/>
<path d="M97.6286 20.7428V20.5714C98.1429 18.8571 98.4857 17.5714 98.4857 14.6571V10.8856C98.4857 8.31421 98.5715 6.25707 97.3715 4.88564V4.79993L103.714 4.28564V7.6285C105.171 6.17136 106.8 3.51421 109.714 3.68564L109.114 9.4285H108.943C108.073 8.32364 106.818 7.58907 105.429 7.37136C104.914 7.37136 104.314 7.79993 103.886 8.39993V14.7428C103.886 17.5714 104.143 19.0285 104.743 20.6571H97.6286V20.7428ZM118.629 17.9999V12.1714C116.229 12.8571 114.943 14.4856 114.943 16.1142C114.943 17.3999 115.714 18.2571 117.171 18.2571C117.771 18.2571 118.2 18.1714 118.629 17.9142M118.714 18.5999C117.771 19.9714 116.143 21.1714 114 21.1714C111.943 21.1714 110.143 19.7142 110.143 17.2285C110.143 13.5428 114.771 12.2571 118.629 11.4856V9.77136C118.629 7.71421 117.771 6.77136 115.371 6.77136C114.086 6.77136 112.457 7.0285 111 7.6285L110.829 7.45707C112.543 5.48564 115.114 3.68564 118.8 3.68564C122.4 3.68564 124.029 5.48564 124.029 8.14279V16.7999C124.029 17.6571 124.457 18.3428 125.486 18.3428C125.914 18.3428 126.343 18.2571 126.771 17.9142L126.857 18.0856C126.343 19.1999 125.143 21.1714 122.314 21.1714C120.257 21.1714 119.057 20.0571 118.714 18.5999Z" fill="#E8EAED"/>
<path d="M90.4286 4.88571H103.714V4.02857H90.4286V4.88571ZM12.6857 11.1429H23.4C23.5714 11.1429 23.6571 11.1429 23.6571 10.9714V10.6286C23.6571 10.5429 23.6571 10.4571 23.4857 10.4571C18.4286 9.08571 14.4857 5.22857 13.2 0.171429L12.8571 0H12.6C12.5143 0 12.4286 0.0857143 12.4286 0.257143V10.9714C12.4286 11.0571 12.4286 11.1429 12.6 11.1429H12.6857ZM12.6857 23.6571H13.0286L13.2 23.4857C14.5714 18.4286 18.4286 14.4857 23.4857 13.2L23.6571 12.9429V12.6857C23.6571 12.6 23.5714 12.4286 23.4 12.4286H12.6857L12.5143 12.6857V23.4C12.5143 23.5714 12.5143 23.6571 12.6857 23.6571ZM10.7143 23.6571H10.9714C11.0571 23.6571 11.1429 23.5714 11.1429 23.4V12.6857C11.1429 12.6 11.1429 12.4286 10.9714 12.4286H0.257143C0.0857143 12.4286 0 12.6 0 12.6857V13.0286C0 13.1143 0 13.2 0.171429 13.2C5.22857 14.4857 9.17143 18.4286 10.4571 23.4857L10.7143 23.6571ZM0.257143 11.1429H10.9714C11.0571 11.1429 11.1429 11.1429 11.1429 10.9714V0.257143C11.1429 0.0857143 11.1429 0 10.9714 0H10.6286C10.5429 0 10.4571 0 10.4571 0.171429C9.08571 5.14286 5.14286 9.17143 0.171429 10.4571L0 10.7143V10.9714C0 11.0571 0.0857143 11.1429 0.257143 11.1429Z" fill="#E8EAED"/>
</g>
<defs>
<clipPath id="clip0_6208_3870">
<rect width="126.857" height="24" fill="white"/>
</clipPath>
</defs>
</svg>
