<svg width="84" height="24" viewBox="0 0 84 24" fill="none" xmlns="http://www.w3.org/2000/svg">
<g clip-path="url(#clip0_6208_3871)">
<path d="M81.8222 13.0437C81.9018 12.9484 82.0218 12.8949 82.1466 12.8997C82.2714 12.9038 82.3873 12.9655 82.46 13.0656H82.4586L83.0586 13.8803C83.1724 14.0366 83.171 14.2533 83.0524 14.4055C82.0115 15.7461 80.1875 17.038 77.9864 17.1621C76.2488 17.2608 74.8156 16.6067 74.036 15.371C73.9667 15.2565 73.844 15.1845 73.7096 15.179C73.5752 15.1735 73.4462 15.2352 73.3681 15.3436C72.4424 16.5772 71.3226 17.542 70.1562 17.6085C68.0785 17.7264 67.4915 16.342 68.0051 13.2899C68.0565 12.9861 67.7884 12.729 67.4997 12.8051C67.0595 12.9237 66.6021 12.9655 66.1475 12.9292C65.9521 12.9114 65.7717 13.0327 65.7148 13.2192C64.9461 15.7276 63.116 18.0611 60.7475 18.1968C59.2348 18.2826 56.9761 17.422 57.2024 13.8268C57.2209 13.5347 56.9569 13.3043 56.6846 13.3866C56.1978 13.5367 55.6876 13.593 55.1795 13.5532C54.9848 13.536 54.8044 13.6574 54.7482 13.8439C53.9795 16.3523 52.1493 18.6858 49.7809 18.8208C48.2682 18.9066 46.0094 18.046 46.2357 14.4515C46.2542 14.1587 45.9902 13.9283 45.718 14.0106C45.2435 14.1539 44.7333 14.2218 44.2129 14.1772C44.0181 14.16 43.8378 14.2814 43.7822 14.4679C43.0122 16.9763 41.1827 19.3098 38.8142 19.4448C37.7384 19.5066 36.2833 19.0876 35.6154 17.5468C35.5605 17.4103 35.435 17.3136 35.2876 17.2965C35.1402 17.2787 34.9955 17.3431 34.9098 17.4631C33.9738 18.731 32.8348 19.7315 31.6451 19.7994C30.4259 19.8686 29.7587 19.3824 29.4686 18.5164C29.4248 18.3758 29.3068 18.2716 29.1614 18.2428C29.0168 18.2147 28.8673 18.2675 28.7726 18.3799C27.9409 19.3516 26.9925 20.064 26.0332 20.1182C24.5548 20.2032 23.7032 19.1143 23.6332 17.7957C23.5523 16.257 24.2222 14.4556 24.9704 12.489C25.0739 12.2154 24.886 11.9198 24.6021 11.9075C24.1365 11.8896 23.673 11.8403 23.2142 11.7587C23.0058 11.7182 22.8028 11.8471 22.7432 12.0583C21.8586 15.1955 20.5036 18.2716 19.3605 20.0894C19.2323 20.2931 18.9683 20.3472 18.7763 20.2074L17.9034 19.569C17.723 19.4332 17.6764 19.1829 17.7957 18.9916C19.4476 16.3632 20.9144 12.2483 21.4197 9.20439C21.4513 9.01033 21.611 8.86633 21.8024 8.85468L22.9633 8.78816C23.2293 8.77308 23.4392 9.01925 23.3905 9.29079L23.3857 9.31959C23.3425 9.56096 23.5043 9.78793 23.7388 9.81948C24.7804 9.9621 26.3363 9.97925 27.3923 9.9381C27.6892 9.92713 27.899 10.2316 27.7907 10.5175C26.9438 12.7564 25.809 15.8579 25.8741 17.0853C25.9036 17.64 26.1498 17.9431 26.5838 17.9184C27.4129 17.8718 28.689 16.2151 29.6558 14.3706C29.6737 14.3376 29.6867 14.302 29.6942 14.265C30.0206 12.8208 30.5034 11.2101 30.9923 9.5829L31.0232 9.48211C31.0705 9.31479 31.2186 9.19479 31.3928 9.18313L32.7834 9.10428C33.0707 9.08851 33.2853 9.37513 33.1982 9.65765L32.9843 10.3536C31.761 14.3376 30.7338 17.6826 32.1176 17.6044C33.022 17.553 34.3036 16.0286 35.4062 13.859C35.4241 13.8234 35.4371 13.785 35.4446 13.7452C35.5002 13.462 35.5674 13.1651 35.6497 12.8551C36.2929 10.305 37.0218 7.77879 37.7514 5.24919C37.977 4.46885 38.2026 3.68713 38.4248 2.90542C38.4748 2.73262 38.6236 2.61125 38.7971 2.60028L40.2248 2.52005C40.5148 2.50359 40.7294 2.79296 40.6382 3.07822C40.0526 4.90565 39.4753 6.73513 38.9061 8.56736C38.7875 8.95136 39.201 9.27022 39.5281 9.04873C40.091 8.66679 40.7425 8.41308 41.3726 8.37742C42.9793 8.28622 44.073 9.59868 44.1772 11.5763C44.1834 11.6805 44.1896 11.793 44.1923 11.9075C44.1985 12.1269 44.3637 12.3038 44.5749 12.3216C45.3306 12.3888 46.1041 12.1653 46.7006 11.6366C46.7624 11.5824 46.8035 11.5084 46.8241 11.4288C47.4158 9.14679 48.0693 6.88051 48.7228 4.61216C48.947 3.83593 49.1713 3.05902 49.3928 2.28073C49.4421 2.10725 49.5909 1.98519 49.7651 1.97559L51.1921 1.89468C51.4821 1.87822 51.6968 2.16828 51.6062 2.45353C51.02 4.28028 50.4426 6.10976 49.8734 7.94268C49.7548 8.32599 50.169 8.64485 50.4954 8.42405C51.0584 8.04142 51.7098 7.78771 52.34 7.75205C53.9466 7.66085 55.0403 8.97399 55.1452 10.9516C55.1514 11.0551 55.1569 11.1683 55.1603 11.2828C55.1651 11.5015 55.331 11.6791 55.5422 11.697C56.2979 11.7635 57.0714 11.5406 57.668 11.0112C57.7297 10.9571 57.7708 10.883 57.7921 10.8035C58.3838 8.52142 59.0366 6.25582 59.6908 3.98748C59.915 3.21056 60.1386 2.43365 60.3601 1.65536C60.4101 1.48256 60.5582 1.36051 60.7324 1.35022L62.1594 1.26931C62.4501 1.25285 62.6648 1.54291 62.5736 1.82816C61.988 3.65559 61.4106 5.48508 60.8414 7.3173C60.7228 7.70062 61.1363 8.02016 61.4627 7.79868C62.0257 7.41605 62.6771 7.16233 63.308 7.12668C64.9146 7.03548 66.0076 8.34862 66.1132 10.3262C66.1187 10.4311 66.1249 10.5429 66.1276 10.6574C66.1338 10.8755 66.2977 11.0538 66.5089 11.0723C67.2398 11.1367 67.9886 10.9296 68.5763 10.4373C68.6414 10.3831 68.6867 10.307 68.7086 10.2227C69.3827 7.64233 70.3729 4.26245 71.3274 1.02725C71.3747 0.859249 71.5228 0.739249 71.6984 0.727591L73.1123 0.646677C73.3996 0.63022 73.6142 0.914791 73.5278 1.19799C72.2147 5.52965 71.1436 9.31959 70.5532 11.555C69.7681 14.5872 69.7372 15.4622 70.63 15.4108C71.3795 15.3683 72.3889 14.3123 73.3406 12.7159C73.3784 12.6535 73.3989 12.5822 73.4017 12.5095C73.5265 9.31411 75.4986 6.40736 78.43 6.24073C80.3939 6.12965 81.4698 7.60256 81.5473 9.05216C81.6933 11.8197 78.9395 13.5888 76.27 13.425C75.9594 13.4058 75.7331 13.737 75.8702 14.0256C76.2426 14.8176 77.0277 15.2592 78.3683 15.1824C79.643 15.1111 80.9802 14.0188 81.8222 13.0437ZM37.6965 13.8199C37.0636 16.342 37.8323 17.3294 38.8273 17.2725C40.46 17.1792 42.0398 14.2074 41.9185 11.9136C41.865 10.9118 41.2746 10.3907 40.5861 10.4291C39.4389 10.4949 38.2033 11.8074 37.6965 13.8199ZM48.6638 13.1959C48.0309 15.7173 48.7996 16.7054 49.7946 16.6485H49.7932C51.4266 16.5552 53.0072 13.5834 52.8858 11.2896C52.833 10.2878 52.2419 9.76668 51.5534 9.80508C50.4062 9.8709 49.1713 11.1834 48.6638 13.1959ZM59.6318 12.5719C58.9982 15.0933 59.7676 16.0814 60.7619 16.0245C62.3939 15.9319 63.9752 12.9594 63.8531 10.6656C63.8003 9.66382 63.2099 9.14199 62.5208 9.18176C61.3736 9.24691 60.1386 10.5594 59.6318 12.5719ZM79.4613 9.27502C79.4517 8.61468 79.043 8.13605 78.38 8.17308C77.0771 8.24782 76.0568 9.64873 75.7324 11.3479C75.681 11.6181 75.8798 11.8698 76.1459 11.8636C77.8286 11.8218 79.5155 10.7191 79.4613 9.27571V9.27502ZM18.3827 10.5018C18.2126 5.38153 14.8602 2.00233 9.90659 2.17856C7.7795 2.27456 5.3459 3.07548 3.51505 4.50793C3.34293 4.64302 3.29767 4.89056 3.41493 5.07913L4.19185 6.33536C4.25219 6.43685 4.35505 6.5061 4.4723 6.52531C4.58956 6.54451 4.70887 6.51159 4.79939 6.43479C6.19276 5.28416 8.09493 4.53056 9.9251 4.45033C13.3201 4.31045 15.8147 6.46976 15.9601 10.6396C16.1418 15.4951 12.8558 21.0494 7.57585 21.3504C7.39207 21.36 7.19939 21.3648 7.00739 21.3648C6.7379 21.3648 6.53973 21.1036 6.60693 20.8334C7.65539 16.6307 8.79504 12.4506 10.0266 8.2965C10.1102 8.01331 9.89699 7.73079 9.61036 7.74725L8.06613 7.83502C7.89059 7.84736 7.74179 7.96805 7.69447 8.13673C6.52945 12.1413 5.36373 16.4839 4.31459 20.5591C4.25425 20.7943 4.01356 20.9301 3.78933 20.854C3.24213 20.6688 2.74293 20.4576 2.3171 20.2115C2.11345 20.0928 1.85493 20.1765 1.75002 20.3939L1.08625 21.7701C0.988189 21.9738 1.06087 22.2234 1.25356 22.3331C2.75733 23.1799 5.03939 23.664 7.33379 23.5338C14.8842 23.1052 18.5829 16.1788 18.3827 10.5045V10.5031V10.5018ZM33.2202 4.21102C32.3013 4.26313 31.4867 5.28828 31.5443 6.36896C31.582 7.08142 32.0421 7.55662 32.7573 7.51685C33.6755 7.46473 34.5128 6.38542 34.4579 5.35685C34.4209 4.64508 33.8833 4.17331 33.2202 4.21102Z" fill="#E8EAED"/>
</g>
<defs>
<clipPath id="clip0_6208_3871">
<rect width="82.2857" height="24" fill="white" transform="translate(0.857178)"/>
</clipPath>
</defs>
</svg>
