<svg width="142" height="24" viewBox="0 0 142 24" fill="none" xmlns="http://www.w3.org/2000/svg">
<g clip-path="url(#clip0_6208_3872)">
<path d="M19.678 13.7512C20.086 13.3483 20.3774 12.8401 20.5197 12.2812L26.4957 18.2846C26.1734 18.7269 25.8151 19.1409 25.4251 19.5241C20.9903 23.9923 13.7808 23.9932 9.33139 19.5241L0.142822 10.2815L4.16625 6.24263C4.62225 5.77977 5.24197 5.5192 5.88911 5.5192C6.53539 5.5192 7.15511 5.77977 7.61111 6.24263L15.0871 13.7512C15.6957 14.3658 16.5211 14.7112 17.3825 14.7112C18.2431 14.7112 19.0694 14.3658 19.678 13.7512ZM25.4251 3.34977L34.6205 12.5932L30.6005 16.6441C29.6448 17.5981 28.1063 17.5981 27.1514 16.6441L19.678 9.12435C18.406 7.85492 16.3583 7.85492 15.0871 9.12435C14.6834 9.53063 14.3928 10.0363 14.2445 10.5918L8.27025 4.58835C8.59511 4.15206 8.94997 3.73806 9.33139 3.34977C13.7808 -1.11594 20.9911 -1.11594 25.4251 3.34977ZM131.005 23.3932V8.14806H133.569V8.88777C134.368 8.23206 135.301 7.9612 136.323 7.9612C139.243 7.9612 141.571 10.2721 141.571 13.1538C141.571 16.0269 139.243 18.3686 136.323 18.3686C135.301 18.3686 134.369 18.0978 133.569 17.4541V23.3941L131.005 23.3932ZM126.728 18.0969V17.4523C125.941 18.0969 125.001 18.3669 123.985 18.3669C121.066 18.3669 118.734 16.0261 118.734 13.1529C118.734 10.2712 121.066 7.9612 123.986 7.9612C124.989 7.9612 125.925 8.2312 126.728 8.88692V8.14806H129.296V18.0969H126.728ZM112.655 18.0969L110.431 11.7481L108.291 18.0969H105.627L102.102 8.14806H104.977L106.976 14.6846L109.309 8.14806H111.559L113.847 14.6846L115.873 8.14806H118.762L115.205 18.0978H112.654L112.655 18.0969ZM95.404 14.9966C96.3177 15.7963 97.4208 16.0261 98.1288 16.0261C99.046 16.0261 99.3357 15.6498 99.3357 15.2975C99.3357 13.8095 94.3145 14.7266 94.3145 11.1455C94.3145 9.32406 95.6114 7.9612 97.8117 7.9612C98.6937 7.9612 100.292 8.16863 101.42 9.22035L100.064 11.0615C99.1891 10.4581 98.3765 10.3132 97.8331 10.3132C96.9794 10.3132 96.8131 10.6869 96.8131 10.9381C96.8131 12.3429 101.772 11.6658 101.772 15.2143C101.772 17.0341 100.457 18.3669 97.9634 18.3669C96.1231 18.3669 94.942 17.6598 94.0454 16.9723L95.404 14.9966ZM92.464 18.1175C92.464 18.1175 91.7157 18.3669 90.4883 18.3669C88.5545 18.3669 87.5474 17.0975 87.5474 15.1415V10.6243H85.9848V8.14806H87.5474V4.77777H90.1163V8.14806H92.7391V10.6243H90.1163V14.5989C90.1163 15.2975 90.3022 15.9412 91.2194 15.9412C91.8648 15.9412 92.464 15.8375 92.464 15.8375V18.1175ZM77.9705 13.9766C78.2611 15.1938 79.2382 16.0458 80.7185 16.0458C81.622 16.0458 82.576 15.7132 83.1545 14.9349L84.9057 16.3381C84.0091 17.6186 82.4243 18.3669 80.7374 18.3669C77.7571 18.3669 75.4634 16.1315 75.4634 13.2146C75.4634 10.3963 77.4485 7.9612 80.5951 7.9612C83.5051 7.9612 85.5717 10.3543 85.5717 13.1529C85.5717 13.4358 85.552 13.7263 85.51 13.9766H77.9705ZM72.862 18.0969L68.9525 13.6646V18.0969H66.3897V2.60235H68.9525V12.0095L72.532 8.14806H75.8217L71.494 12.6961L76.2443 18.0969H72.862ZM65.3508 15.9215C64.4268 17.3906 62.7623 18.3669 60.8688 18.3669C57.9477 18.3669 55.6137 16.0261 55.6137 13.1529C55.6137 10.2712 57.9477 7.9612 60.8688 7.9612C62.7408 7.9612 64.3728 8.90834 65.3088 10.3338L63.118 11.6032C62.6003 10.8686 61.7611 10.4341 60.868 10.4375C59.374 10.4375 58.1423 11.6863 58.1423 13.1529C58.1423 14.6418 59.374 15.9001 60.868 15.9001C61.8451 15.9001 62.6988 15.4012 63.1822 14.6212L65.3508 15.9215ZM51.8577 18.0969V8.14806H54.4274V18.0978H51.8585L51.8577 18.0969ZM51.5277 4.86006C51.5277 3.94549 52.228 3.24692 53.1537 3.24692C54.0674 3.24692 54.7574 3.94463 54.7574 4.86006C54.7583 5.78577 54.0683 6.49463 53.1545 6.49463C52.2288 6.49463 51.5277 5.78577 51.5277 4.86006ZM49.4825 18.1183C49.4825 18.1183 48.7385 18.3678 47.5068 18.3678C45.5723 18.3678 44.5651 17.0975 44.5651 15.1423V10.6252H43.0034V8.14806H44.5651V4.77777H47.1357V8.14806H49.7585V10.6243H47.1357V14.5989C47.1357 15.2975 47.3191 15.9412 48.2371 15.9412C48.8774 15.9412 49.4825 15.8375 49.4825 15.8375V18.1175V18.1183ZM133.569 13.2789C133.634 14.7061 134.842 15.9009 136.323 15.9009C137.823 15.9009 139.046 14.6426 139.046 13.1538C139.046 11.6872 137.823 10.4383 136.323 10.4383C134.843 10.4383 133.634 11.6452 133.569 13.0492V13.2798V13.2789ZM123.985 10.4383C122.487 10.4383 121.258 11.6863 121.258 13.1538C121.258 14.6426 122.487 15.9009 123.985 15.9009C125.509 15.9009 126.728 14.6426 126.728 13.1538C126.728 11.6872 125.509 10.4383 123.985 10.4383ZM82.99 12.0935C82.8451 11.0838 81.7994 10.3132 80.5728 10.3132C79.3823 10.3132 78.4257 11.0203 78.0537 12.0935H82.99Z" fill="#E8EAED"/>
</g>
<defs>
<clipPath id="clip0_6208_3872">
<rect width="141.429" height="24" fill="white" transform="translate(0.142822)"/>
</clipPath>
</defs>
</svg>
