<svg width="121" height="24" viewBox="0 0 121 24" fill="none" xmlns="http://www.w3.org/2000/svg">
<g clip-path="url(#clip0_6208_3873)">
<path d="M94.4677 8.37785H91.6274V18.5206H94.4677V8.37785ZM94.4677 5.03538H91.6274V7.27846H94.4677V5.03538ZM32.4988 5.03538H29.5293V18.5206H38.5985V15.9351H32.4988V5.03538ZM44.4674 7.53415C41.3068 7.53415 38.8043 10.0117 38.8043 13.1335C38.8043 16.2563 41.3068 18.7403 44.4674 18.7403C47.629 18.7403 50.1526 16.2637 50.1526 13.1391C50.1526 10.0145 47.6483 7.53415 44.4674 7.53415ZM44.4674 16.0634C42.8769 16.0634 41.6889 14.8366 41.6889 13.1262C41.6889 11.4157 42.8769 10.1972 44.4674 10.1972C46.0588 10.1972 47.2468 11.4471 47.2468 13.1262C47.2468 14.8052 46.0588 16.0634 44.4674 16.0634ZM62.0696 16.2369C61.56 16.2369 61.1151 15.9351 61.1151 15.0092V10.7022H63.8243V8.37785H61.1151V5.45446H58.2729V8.37785H54.5419V5.45446H51.7006V8.37785H50.1526V10.7022H51.7006V15.0526C51.7006 17.4858 52.8462 18.7357 54.9656 18.7357C55.9228 18.7375 56.8597 18.4542 57.66 17.9197L56.856 15.7883C56.4536 16.0643 55.9837 16.2212 55.4982 16.2397C54.9886 16.2397 54.5428 15.9378 54.5428 15.0129V10.7022H58.2748V15.0526C58.2748 17.4858 59.4194 18.7357 61.5406 18.7357C62.4979 18.7375 63.4348 18.4542 64.2342 17.9197L63.4311 15.7883C63.0277 16.0643 62.556 16.2194 62.0696 16.2369ZM80.0345 12.3757C79.6006 9.348 77.0022 7.20554 74.1453 7.62923C72.6951 7.82954 71.3853 8.616 70.512 9.80954C69.6388 11.0031 69.276 12.504 69.504 13.9726C70.0071 17.4905 72.9849 19.1197 76.0486 18.6655C77.436 18.468 78.7357 17.8597 79.7853 16.9172L78.4413 15.0258C77.6742 15.6988 76.7326 16.1335 75.7293 16.2766C74.3437 16.4797 73.0468 15.9498 72.4994 14.5329L80.1185 13.4068C80.1093 13.0615 80.0806 12.7172 80.0345 12.3757ZM72.1856 12.6415C72.265 11.2588 73.188 10.2074 74.4046 10.0302C75.6831 9.82708 76.9108 10.6228 77.2699 11.8855L72.1856 12.6415ZM110.881 12.3757C110.447 9.348 107.847 7.20554 104.993 7.62923C103.542 7.82954 102.232 8.61508 101.358 9.80862C100.485 11.0031 100.122 12.504 100.35 13.9726C100.854 17.4905 103.83 19.1197 106.895 18.6655C108.282 18.468 109.58 17.8597 110.63 16.9172L109.289 15.0258C108.521 15.6988 107.578 16.1335 106.574 16.2766C105.188 16.4797 103.891 15.9498 103.345 14.5329L110.964 13.4068C110.954 13.0615 110.926 12.7172 110.881 12.3757ZM103.031 12.6415C103.111 11.2588 104.033 10.2074 105.251 10.0302C106.529 9.82708 107.754 10.6228 108.11 11.8855L103.031 12.6415ZM99.1348 5.03538H96.2926V18.5188H99.1348V5.03538ZM116.765 11.7775C115.789 11.5625 114.899 11.3686 114.899 10.7658C114.899 10.3145 115.514 10.0117 116.171 10.0117C117.198 10.0283 118.207 10.2868 119.118 10.7658L120.074 8.61139C118.888 7.87385 117.518 7.5 116.128 7.53415C114.136 7.53415 112.014 8.69723 112.014 10.8951C112.014 12.9628 113.731 13.6698 115.832 14.2329C116.743 14.4923 117.657 14.6418 117.657 15.2889C117.657 15.9351 116.575 16.1926 115.916 16.1926C114.716 16.2166 113.546 15.8123 112.609 15.0498L111.59 17.2717C112.184 17.8311 113.646 18.7403 115.916 18.7403C117.89 18.7403 120.54 17.8578 120.54 15.2068C120.54 13.0052 118.575 12.2123 116.765 11.7775ZM68.2182 8.37785H65.377V18.5206H68.2182V8.37785ZM68.2182 5.03538H65.377V7.27846H68.2182V5.03538ZM81.2446 18.5206H84.2086V13.0098H89.2339V10.452H84.2086V7.61631H90.3139V5.03538H81.2446V18.5206ZM23.9779 6.01477V17.7563C23.9779 21.0785 21.3268 23.7711 18.0563 23.7711H6.49387C3.22341 23.7711 0.571411 21.0785 0.571411 17.7563V6.01477C0.571411 2.69262 3.22341 0 6.49387 0H18.0563C21.3268 0 23.9779 2.69262 23.9779 6.01477ZM18.3609 5.32431C14.3317 5.32431 12.8391 8.24585 11.6382 10.5923L10.8545 12.0951C9.58249 14.5837 8.63264 16.0966 6.18556 16.0966C5.5468 16.0966 5.02895 16.6228 5.02803 17.2717C5.02895 17.9206 5.5468 18.4458 6.18556 18.4468C10.2166 18.4468 11.7093 15.5252 12.9093 13.1778L13.692 11.676C14.9649 9.18738 15.9157 7.67446 18.3609 7.67446C19.0006 7.67446 19.5185 7.14831 19.5203 6.49938C19.5185 5.84954 18.9997 5.32431 18.3609 5.32431Z" fill="#E8EAED"/>
</g>
<defs>
<clipPath id="clip0_6208_3873">
<rect width="120" height="24" fill="white" transform="translate(0.571411)"/>
</clipPath>
</defs>
</svg>
