<svg width="103" height="24" viewBox="0 0 103 24" fill="none" xmlns="http://www.w3.org/2000/svg">
<g clip-path="url(#clip0_6208_3874)">
<path d="M0.571411 10.2189V20.64C0.571411 20.64 2.10814 19.5716 3.82741 18.3476V12.6189C3.82741 9.80291 4.6645 8.89455 6.92923 7.18764L10.0354 4.848V0C10.0354 0 5.54159 3.37891 3.67323 4.78764C1.4085 6.49455 0.571411 7.40364 0.571411 10.2189ZM5.30741 24V13.5789C5.30741 10.7629 6.1445 9.85455 8.40923 8.14764C10.2776 6.73891 14.7714 3.36 14.7714 3.36V12.4524C14.7714 12.7142 14.7729 12.9622 14.775 13.2015C14.7961 15.72 14.807 17.0625 12.2652 19.0102C10.167 20.6211 5.30741 24 5.30741 24ZM32.3009 6.74036H28.2754V18.5302H25.9074V6.74036H21.882V4.464H32.303L32.3009 6.74036ZM38.618 11.4771H38.6383L40.9176 18.5302H43.1263L46.6652 8.24655H44.2972L42.0114 15.6385L39.7096 8.24655H37.562L35.2354 15.6189L32.9685 8.24727H30.5627L34.1089 18.5316H36.3169L38.618 11.4756V11.4771ZM48.09 8.24727H51.0143V18.5316H48.6885V10.3476H47.346L48.0885 8.24727H48.09ZM48.3961 5.07709C48.4187 4.27782 49.0645 3.64218 49.8529 3.64218C50.642 3.64218 51.2878 4.27782 51.3103 5.07709C51.3103 5.92945 50.7052 6.52291 49.8645 6.52291C49.0238 6.52291 48.394 5.92945 48.394 5.07709H48.3961ZM58.402 8.01018C56.7409 8.01018 55.706 8.80218 55.274 9.61455L55.2718 8.24655H53.1241V18.5375H55.45V12.5738C55.45 10.9702 56.3692 10.0371 57.8361 10.0371C59.2245 10.0371 59.8485 10.9622 59.8485 12.3695V18.5302H62.1765V12.072C62.1765 9.67418 60.8652 8.01018 58.402 8.01018ZM71.6703 8.24727H73.818V18.096C73.818 20.8102 72.0965 22.8705 68.9685 22.8705C65.9183 22.8705 64.5307 20.8895 64.3154 19.2851H66.6434C66.8572 20.0771 67.5416 20.8487 69.0085 20.8487C70.6114 20.8487 71.49 19.8589 71.49 18.4131V16.8087C70.922 17.6989 69.8471 18.3927 68.2841 18.3927C65.3903 18.3927 63.6114 16.0356 63.6114 13.2015C63.6114 10.3665 65.3903 8.01018 68.2841 8.01018C69.8471 8.01018 71.0012 8.64364 71.6667 9.72L71.6703 8.24727ZM68.754 10.0895C67.0667 10.0895 65.9387 11.3978 65.9387 13.1985C65.9387 15.0015 67.0732 16.3091 68.754 16.3091C70.4732 16.3091 71.5881 14.9811 71.5881 13.2C71.5881 11.4182 70.4754 10.0895 68.7554 10.0895H68.754ZM83.4463 18.5295H85.5947V8.26764H83.4434V9.74036C82.7969 8.664 81.6056 8.02909 80.0216 8.02909C77.0318 8.02909 75.3329 10.4691 75.3329 13.4029C75.3329 16.3367 77.0347 18.7738 80.0238 18.7738C81.6056 18.7738 82.8005 18.1331 83.4456 17.0625L83.4463 18.5295ZM83.3663 13.3978C83.3663 15.2422 82.2914 16.6887 80.5118 16.6887C78.7525 16.6887 77.6572 15.2415 77.6572 13.3978C77.6572 11.5556 78.7314 10.1098 80.5118 10.1098C82.2921 10.1098 83.3663 11.5549 83.3663 13.3978ZM87.4485 5.57382H89.7736V8.24727H91.6703V10.1302H89.7736V15.3215C89.7736 16.1331 90.1074 16.5302 90.9081 16.5302C91.1525 16.528 91.3954 16.4945 91.6311 16.4305V18.4713C91.234 18.56 90.8267 18.6 90.4201 18.5905C88.3481 18.5905 87.4485 17.5018 87.4485 15.5593V5.57382ZM97.4812 16.7469C95.858 16.7469 94.8216 15.6982 94.6456 14.0735H102.369C102.369 14.0735 102.39 13.7164 102.39 13.3389C102.39 10.3273 100.415 8.01018 97.4041 8.01018C94.3932 8.01018 92.3605 10.3862 92.3605 13.3804C92.3605 16.4509 94.354 18.768 97.4231 18.768C99.7874 18.768 101.586 17.3229 102.192 15.2822H99.8463C99.4747 16.1927 98.5547 16.7469 97.4812 16.7469ZM100.081 12.3287H94.6856C94.9205 10.9215 95.898 9.93091 97.4027 9.93091C98.9067 9.93091 99.8856 10.9033 100.081 12.3287Z" fill="#E8EAED"/>
</g>
<defs>
<clipPath id="clip0_6208_3874">
<rect width="101.818" height="24" fill="white" transform="translate(0.571411)"/>
</clipPath>
</defs>
</svg>
