<svg width="157" height="48" viewBox="0 0 157 48" fill="none" xmlns="http://www.w3.org/2000/svg">
<mask id="mask0_51_765" style="mask-type:luminance" maskUnits="userSpaceOnUse" x="0" y="8" width="28" height="32">
<path d="M27.5658 8H0V40H27.5658V8Z" fill="white"/>
</mask>
<g mask="url(#mask0_51_765)">
<path d="M21.3293 39.8953C21.5398 38.79 21.7503 37.6716 21.9608 36.5663C22.1187 35.7768 22.2766 34.9742 22.4345 34.1847C22.645 33.1321 22.3556 32.2374 21.5793 31.4874C20.895 30.8295 20.2108 30.1847 19.5266 29.54C18.6319 28.6979 18.3556 27.711 18.5924 26.5005C19.7108 20.8953 20.8029 15.2768 21.8819 9.67157C22.1056 8.50051 22.6582 8.01367 23.8687 8.01367C25.0661 8.01367 26.2635 8.01367 27.5661 8.01367C27.3424 9.18472 27.145 10.2637 26.9345 11.3295C25.724 17.5137 24.5003 23.711 23.2898 29.8953C23.0793 30.9479 23.3556 31.8558 24.1319 32.5926C24.8292 33.2637 25.5266 33.9216 26.224 34.5795C27.1056 35.4084 27.395 36.3953 27.1187 37.5663C27.1056 37.6321 27.0793 37.6979 27.0661 37.7637C26.6187 39.8689 26.4608 40.0005 24.2635 40.0005C23.3687 40.0005 22.4608 39.9874 21.5661 39.9874C21.5135 39.9742 21.4608 39.9347 21.3293 39.8953Z" fill="url(#paint0_linear_51_765)"/>
<path d="M6.26321 8.0795C5.829 10.2637 5.47374 12.3821 5.00005 14.4742C4.68426 15.869 4.85531 17.0006 6.05268 17.9216C6.76321 18.4611 7.34216 19.1716 8.02637 19.7637C8.80268 20.4479 9.02637 21.2769 8.84216 22.2506C8.23689 25.369 7.61847 28.4874 7.00005 31.6058C6.56584 33.8163 6.11847 36.0269 5.71058 38.2506C5.47374 39.5532 4.96058 40.0137 3.61847 40.0137C2.65795 40.0137 1.68426 40.0137 0.723736 40.0137C0.513209 40.0137 0.302683 39.9874 0.0263672 39.9611C0.315841 38.4479 0.592157 37.0137 0.868473 35.5795C1.94742 30.0927 3.02637 24.619 4.10531 19.1321C4.30268 18.1058 4.079 17.2506 3.26321 16.5269C2.4211 15.8295 1.68426 15.04 0.894788 14.3163C0.250051 13.7374 5.13792e-05 13.0269 0.13163 12.1979C0.289525 11.2242 0.473736 10.2637 0.684262 9.29003C0.815841 8.65845 1.21058 8.13213 1.84216 8.09266C3.27637 8.02687 4.72374 8.0795 6.26321 8.0795Z" fill="url(#paint1_linear_51_765)"/>
<path d="M17.2503 27.2899C17.2371 27.2768 17.224 27.2636 17.2108 27.2505C17.1977 27.2373 17.1977 27.2373 17.1845 27.2373C16.6582 26.6847 16.1056 26.1583 15.5398 25.6583C15.5266 25.6452 15.5135 25.632 15.5003 25.632C15.4214 25.5662 15.3293 25.4873 15.2371 25.4215C14.9608 25.211 14.7503 25.0005 14.5793 24.7636C14.3029 24.3952 14.145 24.0005 14.0793 23.5794C14.0266 23.211 14.0398 22.8294 14.0924 22.4215C14.1319 22.3294 14.1582 22.2241 14.1714 22.1057C14.224 21.8031 14.2898 21.5005 14.3424 21.1847C14.3424 21.1847 14.3424 21.1847 14.3424 21.1715C14.7371 19.3426 15.0661 17.4741 15.4345 15.5662H15.4214C15.645 14.4347 15.8556 13.3031 16.0793 12.1715C16.3424 10.8294 16.6056 9.47414 16.8687 8.05308C16.6187 8.02677 16.4345 7.98729 16.2371 7.98729C15.2108 7.98729 14.1845 7.97414 13.145 7.98729C11.974 8.00045 11.4345 8.46098 11.1977 9.60571C10.6714 12.2636 10.1582 14.9347 9.63192 17.5926C9.44771 18.4873 9.32929 19.132 9.28982 19.6583V19.6715C9.15824 20.5005 9.40824 21.211 10.0529 21.8031C10.8556 22.5268 11.5924 23.3031 12.395 24.0136C12.4082 24.0268 12.4082 24.0268 12.4214 24.0399C12.4608 24.0794 12.5003 24.1189 12.5398 24.1452C12.7108 24.3031 12.8424 24.4741 12.9608 24.6583C13.3161 25.2241 13.3819 25.882 13.2503 26.6057C12.3819 31.0268 11.5135 35.4478 10.645 39.8689C10.7766 39.9215 10.8556 39.961 10.9345 39.961C12.1845 39.961 13.4345 40.0005 14.6845 39.9478C15.5793 39.9215 16.0661 39.4083 16.2635 38.461C16.8293 35.5662 17.3819 32.6583 17.9477 29.7505C18.1714 28.8162 17.895 27.9873 17.2503 27.2899Z" fill="url(#paint2_linear_51_765)"/>
</g>
<path d="M49.032 16.68L43.824 33H41.712L36.48 16.68H38.688L41.28 24.96L42.84 30.192L44.424 24.936L46.968 16.68H49.032ZM60.4809 26.328V27.768C60.4809 29.464 60.0409 30.8 59.1609 31.776C58.2969 32.752 57.0569 33.24 55.4409 33.24C53.8409 33.24 52.6009 32.752 51.7209 31.776C50.8409 30.8 50.4009 29.464 50.4009 27.768V26.328C50.4009 24.664 50.8329 23.344 51.6969 22.368C52.5769 21.376 53.8249 20.88 55.4409 20.88C57.0569 20.88 58.2969 21.376 59.1609 22.368C60.0409 23.344 60.4809 24.664 60.4809 26.328ZM58.4409 26.328C58.4409 25.192 58.1849 24.304 57.6729 23.664C57.1609 23.008 56.4169 22.68 55.4409 22.68C54.4809 22.68 53.7369 23.008 53.2089 23.664C52.6969 24.304 52.4409 25.192 52.4409 26.328V27.768C52.4409 28.952 52.6969 29.864 53.2089 30.504C53.7369 31.144 54.4809 31.464 55.4409 31.464C56.4169 31.464 57.1609 31.144 57.6729 30.504C58.1849 29.864 58.4409 28.952 58.4409 27.768V26.328ZM70.0172 33L67.0652 28.368L64.2332 33H62.1452L66.0812 26.856L62.4332 21.12H64.6172L67.2332 25.272L69.8012 21.12H71.8652L68.2412 26.808L72.1772 33H70.0172ZM83.2866 26.136H77.3586V33H75.2706V16.68H84.0066V18.648H77.3586V24.168H83.2866V26.136ZM86.9552 30.12V15.24H88.9232V30.024C88.9232 30.456 88.9872 30.784 89.1152 31.008C89.2592 31.216 89.5392 31.32 89.9552 31.32H90.3392V33.12H89.7872C88.7312 33.12 87.9952 32.84 87.5792 32.28C87.1632 31.72 86.9552 31 86.9552 30.12ZM102.715 26.328V27.768C102.715 29.464 102.275 30.8 101.395 31.776C100.531 32.752 99.2913 33.24 97.6753 33.24C96.0753 33.24 94.8353 32.752 93.9553 31.776C93.0753 30.8 92.6353 29.464 92.6353 27.768V26.328C92.6353 24.664 93.0673 23.344 93.9313 22.368C94.8113 21.376 96.0593 20.88 97.6753 20.88C99.2913 20.88 100.531 21.376 101.395 22.368C102.275 23.344 102.715 24.664 102.715 26.328ZM100.675 26.328C100.675 25.192 100.419 24.304 99.9073 23.664C99.3953 23.008 98.6513 22.68 97.6753 22.68C96.7153 22.68 95.9713 23.008 95.4433 23.664C94.9313 24.304 94.6753 25.192 94.6753 26.328V27.768C94.6753 28.952 94.9313 29.864 95.4433 30.504C95.9713 31.144 96.7153 31.464 97.6753 31.464C98.6513 31.464 99.3953 31.144 99.9073 30.504C100.419 29.864 100.675 28.952 100.675 27.768V26.328ZM120.526 21.12L117.478 33H115.198L112.702 23.256L110.134 33H107.854L104.83 21.12H106.846L108.046 26.088L109.126 31.008L111.694 21.12H113.782L116.35 31.056L117.406 26.112L118.582 21.12H120.526ZM132.45 33L131.226 29.208H125.034L123.81 33H121.77L127.194 16.68H129.162L134.61 33H132.45ZM126.546 24.504L125.634 27.312H130.602L129.69 24.504L128.13 19.464L126.546 24.504ZM139.317 18.216H137.109V16.008H139.317V18.216ZM139.197 33H137.229V21.12H139.197V33Z" fill="#F2F2F4"/>
<defs>
<linearGradient id="paint0_linear_51_765" x1="18.1495" y1="6.7342" x2="30.3121" y2="7.5949" gradientUnits="userSpaceOnUse">
<stop stop-color="#1472FF"/>
<stop offset="0.249995" stop-color="#47A9FF"/>
<stop offset="0.5" stop-color="#ADC3FF"/>
<stop offset="0.75" stop-color="#FFADC9"/>
<stop offset="1" stop-color="#FF476B"/>
</linearGradient>
<linearGradient id="paint1_linear_51_765" x1="-0.328697" y1="6.7814" x2="11.5972" y2="7.60964" gradientUnits="userSpaceOnUse">
<stop stop-color="#1472FF"/>
<stop offset="0.249995" stop-color="#47A9FF"/>
<stop offset="0.5" stop-color="#ADC3FF"/>
<stop offset="0.75" stop-color="#FFADC9"/>
<stop offset="1" stop-color="#FF476B"/>
</linearGradient>
<linearGradient id="paint2_linear_51_765" x1="8.90512" y1="6.7017" x2="20.6872" y2="7.50897" gradientUnits="userSpaceOnUse">
<stop stop-color="#1472FF"/>
<stop offset="0.249995" stop-color="#47A9FF"/>
<stop offset="0.5" stop-color="#ADC3FF"/>
<stop offset="0.75" stop-color="#FFADC9"/>
<stop offset="1" stop-color="#FF476B"/>
</linearGradient>
</defs>
</svg>
