<svg width="157" height="48" viewBox="0 0 157 48" fill="none" xmlns="http://www.w3.org/2000/svg">
<g clip-path="url(#clip0_7389_1569)">
<path d="M21.3291 39.8953C21.5396 38.79 21.7501 37.6716 21.9606 36.5663C22.1185 35.7768 22.2764 34.9742 22.4343 34.1847C22.6448 33.1321 22.3554 32.2374 21.5791 31.4874C20.8948 30.8295 20.2106 30.1847 19.5264 29.54C18.6317 28.6979 18.3554 27.711 18.5922 26.5005C19.7106 20.8953 20.8027 15.2768 21.8817 9.67157C22.1054 8.50051 22.658 8.01367 23.8685 8.01367C25.0659 8.01367 26.2633 8.01367 27.5659 8.01367C27.3422 9.18472 27.1448 10.2637 26.9343 11.3295C25.7238 17.5137 24.5001 23.711 23.2896 29.8953C23.0791 30.9479 23.3554 31.8558 24.1317 32.5926C24.829 33.2637 25.5264 33.9216 26.2238 34.5795C27.1054 35.4084 27.3948 36.3953 27.1185 37.5663C27.1054 37.6321 27.0791 37.6979 27.0659 37.7637C26.6185 39.8689 26.4606 40.0005 24.2633 40.0005C23.3685 40.0005 22.4606 39.9874 21.5659 39.9874C21.5133 39.9742 21.4606 39.9347 21.3291 39.8953Z" fill="url(#paint0_linear_7389_1569)"/>
<path d="M6.26321 8.0795C5.829 10.2637 5.47374 12.3821 5.00005 14.4742C4.68426 15.869 4.85531 17.0006 6.05268 17.9216C6.76321 18.4611 7.34216 19.1716 8.02637 19.7637C8.80268 20.4479 9.02637 21.2769 8.84216 22.2506C8.23689 25.369 7.61847 28.4874 7.00005 31.6058C6.56584 33.8163 6.11847 36.0269 5.71058 38.2506C5.47374 39.5532 4.96058 40.0137 3.61847 40.0137C2.65795 40.0137 1.68426 40.0137 0.723736 40.0137C0.513209 40.0137 0.302683 39.9874 0.0263672 39.9611C0.315841 38.4479 0.592157 37.0137 0.868473 35.5795C1.94742 30.0927 3.02637 24.619 4.10531 19.1321C4.30268 18.1058 4.079 17.2506 3.26321 16.5269C2.4211 15.8295 1.68426 15.04 0.894788 14.3163C0.250051 13.7374 5.13978e-05 13.0269 0.13163 12.1979C0.289525 11.2242 0.473736 10.2637 0.684262 9.29003C0.815841 8.65845 1.21058 8.13213 1.84216 8.09266C3.27637 8.02687 4.72374 8.0795 6.26321 8.0795Z" fill="url(#paint1_linear_7389_1569)"/>
<path d="M17.2501 27.2899C17.2369 27.2768 17.2238 27.2636 17.2106 27.2505C17.1975 27.2373 17.1975 27.2373 17.1843 27.2373C16.658 26.6847 16.1054 26.1583 15.5396 25.6583C15.5264 25.6452 15.5133 25.632 15.5001 25.632C15.4212 25.5662 15.3291 25.4873 15.2369 25.4215C14.9606 25.211 14.7501 25.0005 14.5791 24.7636C14.3027 24.3952 14.1448 24.0005 14.0791 23.5794C14.0264 23.211 14.0396 22.8294 14.0922 22.4215C14.1317 22.3294 14.158 22.2241 14.1712 22.1057C14.2238 21.8031 14.2896 21.5005 14.3422 21.1847C14.3422 21.1847 14.3422 21.1847 14.3422 21.1715C14.7369 19.3426 15.0659 17.4741 15.4343 15.5662H15.4212C15.6448 14.4347 15.8554 13.3031 16.0791 12.1715C16.3422 10.8294 16.6054 9.47414 16.8685 8.05308C16.6185 8.02677 16.4343 7.98729 16.2369 7.98729C15.2106 7.98729 14.1843 7.97414 13.1448 7.98729C11.9738 8.00045 11.4343 8.46098 11.1975 9.60571C10.6712 12.2636 10.158 14.9347 9.63168 17.5926C9.44747 18.4873 9.32905 19.132 9.28958 19.6583V19.6715C9.158 20.5005 9.408 21.211 10.0527 21.8031C10.8554 22.5268 11.5922 23.3031 12.3948 24.0136C12.408 24.0268 12.408 24.0268 12.4212 24.0399C12.4606 24.0794 12.5001 24.1189 12.5396 24.1452C12.7106 24.3031 12.8422 24.4741 12.9606 24.6583C13.3159 25.2241 13.3817 25.882 13.2501 26.6057C12.3817 31.0268 11.5133 35.4478 10.6448 39.8689C10.7764 39.9215 10.8554 39.961 10.9343 39.961C12.1843 39.961 13.4343 40.0005 14.6843 39.9478C15.5791 39.9215 16.0659 39.4083 16.2633 38.461C16.8291 35.5662 17.3817 32.6583 17.9475 29.7505C18.1712 28.8162 17.8948 27.9873 17.2501 27.2899Z" fill="url(#paint2_linear_7389_1569)"/>
</g>
<path d="M36.5619 31.2891L37.558 29.707C38.0658 30.1211 38.5736 30.4648 39.0814 30.7383C39.5892 31.0117 40.1049 31.2148 40.6283 31.3477C41.1595 31.4805 41.6986 31.5469 42.2455 31.5469C43.0424 31.5469 43.7377 31.4141 44.3314 31.1484C44.933 30.8828 45.4017 30.5156 45.7377 30.0469C46.0736 29.5703 46.2416 29.0234 46.2416 28.4062C46.2416 27.7344 46.0502 27.1797 45.6674 26.7422C45.2924 26.2969 44.8041 25.918 44.2025 25.6055C43.601 25.293 42.9603 24.9961 42.2806 24.7148C41.7103 24.4727 41.1439 24.2148 40.5814 23.9414C40.0189 23.668 39.5072 23.3516 39.0463 22.9922C38.5931 22.625 38.2299 22.1836 37.9564 21.668C37.683 21.1523 37.5463 20.5312 37.5463 19.8047C37.5463 18.875 37.7806 18.0547 38.2494 17.3438C38.7181 16.6328 39.3666 16.0781 40.1947 15.6797C41.0306 15.2812 41.9916 15.082 43.0775 15.082C43.8119 15.082 44.5502 15.1797 45.2924 15.375C46.0345 15.5625 46.7533 15.8398 47.4486 16.207L46.6049 17.8945C46.058 17.5742 45.4838 17.3281 44.8822 17.1562C44.2885 16.9844 43.7025 16.8984 43.1244 16.8984C42.4369 16.8984 41.8314 17.0156 41.308 17.25C40.7924 17.4766 40.3861 17.7969 40.0892 18.2109C39.8002 18.6172 39.6556 19.0938 39.6556 19.6406C39.6556 20.25 39.8314 20.7617 40.183 21.1758C40.5424 21.5898 41.0033 21.9492 41.5658 22.2539C42.1361 22.5508 42.7377 22.8398 43.3705 23.1211C43.972 23.3867 44.5658 23.668 45.1517 23.9648C45.7455 24.2539 46.2806 24.5977 46.7572 24.9961C47.2416 25.3867 47.6283 25.8555 47.9174 26.4023C48.2064 26.9492 48.351 27.6094 48.351 28.3828C48.351 29.375 48.101 30.2461 47.601 30.9961C47.101 31.7383 46.3978 32.3164 45.4916 32.7305C44.5931 33.1445 43.5385 33.3516 42.3275 33.3516C41.265 33.3516 40.2533 33.1797 39.2924 32.8359C38.3314 32.4922 37.4213 31.9766 36.5619 31.2891ZM54.2924 38.8594H52.1947L54.6556 32.9062L49.0541 21.2812H51.1752L55.5814 30.6914L59.472 21.2812H61.558L54.2924 38.8594ZM74.9994 33H73.0775V26.4609C73.0775 25.3516 72.7611 24.4648 72.1283 23.8008C71.4955 23.1367 70.6556 22.8047 69.6088 22.8047C68.5228 22.8047 67.64 23.1641 66.9603 23.8828C66.2885 24.5938 65.9525 25.5312 65.9525 26.6953V33H64.0306V21.2812H65.7064L65.7767 23.1797C66.2064 22.4922 66.7728 21.9648 67.476 21.5977C68.1791 21.2305 69.0072 21.0469 69.9603 21.0469C71.515 21.0469 72.7416 21.5156 73.64 22.4531C74.5463 23.3906 74.9994 24.6758 74.9994 26.3086V33ZM84.9603 32.7188C84.1869 33.0625 83.433 33.2344 82.6986 33.2344C81.9955 33.2344 81.3783 33.082 80.847 32.7773C80.3158 32.4648 79.9017 32.0312 79.6049 31.4766C79.308 30.9141 79.1595 30.2617 79.1595 29.5195V23.0039H77.1088V21.2812H79.2533V18.3516H81.0814V21.2812H84.5853V23.0039H81.0814V29.168C81.0814 29.8711 81.2689 30.4375 81.6439 30.8672C82.0267 31.2969 82.5267 31.5117 83.1439 31.5117C83.6439 31.5117 84.1439 31.3633 84.6439 31.0664L84.9603 32.7188ZM87.5385 33V15.4219H89.4603V23.0391C90.3431 21.7109 91.7103 21.0469 93.5619 21.0469C95.1166 21.0469 96.3275 21.5117 97.1947 22.4414C98.0697 23.3633 98.5072 24.6523 98.5072 26.3086V33H96.5853V26.7539C96.5853 25.4961 96.2728 24.5195 95.6478 23.8242C95.0306 23.1211 94.1674 22.7695 93.058 22.7695C91.9408 22.7695 91.0619 23.125 90.4213 23.8359C89.7806 24.5469 89.4603 25.5195 89.4603 26.7539V33H87.5385ZM119.613 33H117.55V18.3164L111.679 30.0469H109.816L103.968 18.3867V33H101.906V15.4219H104.566L110.753 27.8789L116.917 15.4219H119.613V33ZM124.265 17.5781C123.937 17.5781 123.66 17.4648 123.433 17.2383C123.214 17.0039 123.105 16.7227 123.105 16.3945C123.105 16.0742 123.214 15.8008 123.433 15.5742C123.66 15.3477 123.937 15.2344 124.265 15.2344C124.601 15.2344 124.882 15.3477 125.109 15.5742C125.335 15.8008 125.449 16.0742 125.449 16.3945C125.449 16.7227 125.335 17.0039 125.109 17.2383C124.882 17.4648 124.601 17.5781 124.265 17.5781ZM125.226 33H123.304V21.2812H125.226V33ZM139.898 33H137.976V26.4609C137.976 25.3516 137.66 24.4648 137.027 23.8008C136.394 23.1367 135.554 22.8047 134.507 22.8047C133.421 22.8047 132.538 23.1641 131.859 23.8828C131.187 24.5938 130.851 25.5312 130.851 26.6953V33H128.929V21.2812H130.605L130.675 23.1797C131.105 22.4922 131.671 21.9648 132.374 21.5977C133.078 21.2305 133.906 21.0469 134.859 21.0469C136.413 21.0469 137.64 21.5156 138.538 22.4531C139.445 23.3906 139.898 24.6758 139.898 26.3086V33ZM154.734 33H153.023L152.917 31.2891C152.378 31.8906 151.722 32.3672 150.949 32.7188C150.175 33.0625 149.331 33.2344 148.417 33.2344C147.261 33.2344 146.226 32.9688 145.312 32.4375C144.398 31.9062 143.675 31.1797 143.144 30.2578C142.62 29.3359 142.359 28.2969 142.359 27.1406C142.359 25.9766 142.62 24.9375 143.144 24.0234C143.675 23.1016 144.398 22.375 145.312 21.8438C146.226 21.3125 147.261 21.0469 148.417 21.0469C149.3 21.0469 150.117 21.207 150.867 21.5273C151.624 21.8477 152.273 22.293 152.812 22.8633V15.4219H154.734V33ZM148.581 31.5C149.363 31.5 150.074 31.3203 150.714 30.9609C151.355 30.5938 151.863 30.0977 152.238 29.4727C152.62 28.8398 152.812 28.125 152.812 27.3281V26.9297C152.812 26.1328 152.62 25.4219 152.238 24.7969C151.863 24.1641 151.355 23.668 150.714 23.3086C150.074 22.9492 149.363 22.7695 148.581 22.7695C147.769 22.7695 147.042 22.9609 146.402 23.3438C145.761 23.7266 145.253 24.2461 144.878 24.9023C144.511 25.5586 144.328 26.3008 144.328 27.1289C144.328 27.957 144.511 28.7031 144.878 29.3672C145.253 30.0234 145.761 30.543 146.402 30.9258C147.042 31.3086 147.769 31.5 148.581 31.5Z" fill="#E8EAED"/>
<defs>
<linearGradient id="paint0_linear_7389_1569" x1="18.1493" y1="6.7342" x2="30.3119" y2="7.5949" gradientUnits="userSpaceOnUse">
<stop stop-color="#1472FF"/>
<stop offset="0.249995" stop-color="#47A9FF"/>
<stop offset="0.5" stop-color="#ADC3FF"/>
<stop offset="0.75" stop-color="#FFADC9"/>
<stop offset="1" stop-color="#FF476B"/>
</linearGradient>
<linearGradient id="paint1_linear_7389_1569" x1="-0.328697" y1="6.7814" x2="11.5972" y2="7.60964" gradientUnits="userSpaceOnUse">
<stop stop-color="#1472FF"/>
<stop offset="0.249995" stop-color="#47A9FF"/>
<stop offset="0.5" stop-color="#ADC3FF"/>
<stop offset="0.75" stop-color="#FFADC9"/>
<stop offset="1" stop-color="#FF476B"/>
</linearGradient>
<linearGradient id="paint2_linear_7389_1569" x1="8.90488" y1="6.7017" x2="20.687" y2="7.50897" gradientUnits="userSpaceOnUse">
<stop stop-color="#1472FF"/>
<stop offset="0.249995" stop-color="#47A9FF"/>
<stop offset="0.5" stop-color="#ADC3FF"/>
<stop offset="0.75" stop-color="#FFADC9"/>
<stop offset="1" stop-color="#FF476B"/>
</linearGradient>
<clipPath id="clip0_7389_1569">
<rect width="27.5658" height="32" fill="white" transform="translate(0 8)"/>
</clipPath>
</defs>
</svg>
